<?xml version="1.0" standalone="no"?>
<!DOCTYPE svg PUBLIC "-//W3C//DTD SVG 1.1//EN" "http://www.w3.org/Graphics/SVG/1.1/DTD/svg11.dtd" >
<svg xmlns="http://www.w3.org/2000/svg">
<metadata></metadata>
<defs>
<font id="ankacoder_condenseditalic" horiz-adv-x="1075" >
<font-face units-per-em="2048" ascent="1638" descent="-410" />
<missing-glyph horiz-adv-x="500" />
<glyph horiz-adv-x="0" />
<glyph unicode="&#xd;" />
<glyph unicode=" " />
<glyph unicode="!" d="M279 59q0 59 41 102t105 43q63 0 105 -42.5t42 -102.5t-41.5 -102.5t-105.5 -42.5q-62 0 -104 42.5t-42 102.5zM438 384l167 907q6 36 37.5 81.5t78.5 45.5q28 0 48.5 -24.5t21.5 -62.5q0 -23 -5 -41l-210 -906h-138z" />
<glyph unicode="&#x22;" d="M233 1041q0 25 13 51l143 295q37 76 110 76q50 0 90 -36.5t40 -87.5q0 -47 -41 -91l-221 -240q-32 -36 -69 -36q-27 0 -46 19.5t-19 49.5zM713 1041q0 25 13 51l143 295q37 76 110 76q50 0 90 -36.5t40 -87.5q0 -47 -41 -91l-221 -240q-32 -36 -69 -36q-27 0 -46 19.5 t-19 49.5z" />
<glyph unicode="#" d="M0 341l35 150h165l88 407h-164l32 151h165l66 301h153l-65 -301h274l66 301h153l-66 -301h170l-33 -151h-169l-89 -407h169l-32 -150h-170l-75 -341h-153l74 341h-273l-75 -341h-153l74 341h-167zM353 491h274l89 407h-274z" />
<glyph unicode="$" d="M49 307q0 41 6 67l146 -34q-3 -10 -3 -24q0 -57 46.5 -112t128.5 -73l128 606l-95 46q-162 78 -162 202q0 29 9 64l6 29q27 132 136 228t250 115l15 70h153l-15 -72q70 -10 123 -35t81.5 -54t46 -65.5t22 -62.5t4.5 -52q0 -20 -12 -98l-148 22q10 40 10 76v5q0 49 -44 78 t-114 38l-95 -450l78 -38q53 -26 91 -73t56 -100.5t25.5 -97.5t7.5 -80q0 -35 -9 -80l-6 -30q-27 -130 -149 -229.5t-272 -115.5l-14 -70h-154l17 77q-123 27 -206.5 119.5t-87.5 203.5zM394 985q0 -16 15.5 -30.5t62.5 -37.5l61 -29l78 373q-78 -25 -135 -84t-71 -128 l-6 -32q-5 -20 -5 -32zM528 135q89 23 158 85.5t83 131.5l6 30q5 25 5 50q0 63 -25.5 128.5t-72.5 88.5l-42 20z" />
<glyph unicode="%" d="M-41 126l1116 1249l112 -100l-1116 -1249zM230 1145q0 106 67 184.5t168 78.5q58 0 102.5 -19t69 -47t39.5 -65.5t19.5 -68.5t4.5 -63q0 -109 -64 -186t-171 -77q-108 0 -171.5 67.5t-63.5 195.5zM380 1145q0 -46 21 -79.5t64 -33.5q42 0 63.5 33.5t21.5 79.5 q0 113 -85 113t-85 -113zM495 252q0 66 22 116.5t51.5 77t65.5 43t58.5 21t36.5 4.5q114 0 175 -75.5t61 -186.5q0 -113 -58.5 -188t-176.5 -75q-101 0 -168 78.5t-67 184.5zM645 252q0 -43 25 -78t60 -35q85 0 85 113q0 47 -21 79t-65 32q-39 0 -61.5 -33.5t-22.5 -77.5z " />
<glyph unicode="&#x26;" d="M39 255q0 49 11 96l7 31q37 176 233 319l148 108q-24 41 -36 64.5t-29 76.5t-17 99q0 42 12 105l4 23q24 113 110 180.5t214 67.5h22q44 0 65.5 -3.5t56.5 -16.5q71 -26 106.5 -78.5t37.5 -115.5q0 -35 -7 -70l-12 -58q-9 -42 -46 -89.5t-131 -115.5l-164 -120l145 -363 l144 234l128 -78l-202 -329l74 -184l-140 -56l-43 108q-132 -115 -309 -115h-20q-157 0 -259.5 78.5t-102.5 201.5zM189 256q3 -61 63 -96t149 -35h20q150 0 249 116l-171 427l-125 -91q-65 -47 -112 -107.5t-59 -117.5l-5 -29q-9 -63 -9 -67zM511 1067q0 -73 49 -170 l142 103q36 26 73.5 60.5t41.5 52.5l14 60q3 17 3 30q0 44 -30.5 58t-85.5 14h-22q-49 0 -85 -14.5t-54 -38t-25.5 -40.5t-11.5 -35l-4 -21q-5 -35 -5 -59z" />
<glyph unicode="'" d="M533 1041q0 25 13 51l143 295q37 76 110 76q50 0 90 -36.5t40 -87.5q0 -47 -41 -91l-221 -240q-32 -36 -69 -36q-27 0 -46 19.5t-19 49.5z" />
<glyph unicode="(" d="M213 521q0 306 171 567.5t497 455.5l76 -128q-291 -173 -442.5 -400.5t-151.5 -494.5q0 -29 3.5 -62.5t19.5 -96.5t43.5 -122t82.5 -131t128 -130l-94 -118q-89 71 -155 158t-99 158.5t-52 149t-23 118t-4 76.5z" />
<glyph unicode=")" d="M164 -16q160 96 296 242t219 317t83 322q0 332 -281 556l94 118q337 -269 337 -674q0 -165 -81 -351t-236.5 -362.5t-354.5 -295.5z" />
<glyph unicode="*" d="M162 745q0 17 7 31q20 44 68 44q17 0 31 -7l232 -106l65 309q5 26 26 42.5t48 16.5q5 0 15 -2q26 -5 43 -26t17 -47q0 -6 -2 -16l-56 -265l249 96q15 5 27 5q23 0 42.5 -13t27.5 -35q5 -15 5 -27q0 -50 -48 -68l-300 -117l113 -221q8 -15 8 -34q0 -47 -41 -67 q-15 -8 -34 -8q-47 0 -67 41l-102 200l-205 -217q-23 -24 -55 -24q-31 0 -51 20q-24 22 -24 55q0 31 20 51l207 219l-222 102q-44 20 -44 68z" />
<glyph unicode="+" d="M128 525l32 150h330l70 336h153l-69 -336h336l-32 -150h-336l-76 -368h-153l76 368h-331z" />
<glyph unicode="," d="M316 -221q56 8 114 42t58 83q0 16 -8.5 34.5t-23.5 25.5q-55 26 -55 101q0 59 41.5 102t104.5 43t105 -42t42 -103q0 -84 -29.5 -150.5t-79 -106.5t-107.5 -62t-121 -24h-38z" />
<glyph unicode="-" d="M127 525v150h822v-150h-822z" />
<glyph unicode="." d="M391 59q0 59 41 102t105 43q63 0 105 -42.5t42 -102.5t-41.5 -102.5t-105.5 -42.5q-62 0 -104 42.5t-42 102.5zM522 -11v-10h2v6h4v-6h2v14h-6zM524 -11l1 2h3v-4h-4v2zM532 -11v-10h2v8h2v-8h2v8l-1 2h-5zM540 -11v-10h2v8h2v-8h2v8l-1 2h-5zM546 -29v-4l1 -2h5v-4h-6 v-2h7l1 2v4l-1 2h-5v4h6v2h-7zM548 -11v-2h4v-2h-3l-1 -2v-2l1 -2h5v8l-1 2h-5zM550 -17h2v-2h-2v2zM556 -27v-14h2v8h2v-8h2v8l-1 2h-3v4h-2zM564 -31v-8l1 -2h5v10h-2v-8h-2v8h-2zM572 -33v-6l1 -2h3v-2h-4v-2h5l1 2v12h-5zM574 -33h2v-6h-2v6zM580 -33v-6l1 -2h4l1 2v6 l-1 2h-4zM582 -33h2v-6h-2v6zM588 -27v-14h4v2h-2v12h-2z" />
<glyph unicode="/" d="M36 16l947 1450l126 -82l-947 -1450z" />
<glyph unicode="0" d="M-60 161l183 187v24q0 154 49 375q15 74 31.5 136.5t42 134.5t54.5 128t70 110t89 90t111.5 57.5t136.5 21.5q40 0 77 -8.5t77 -28t73.5 -59t54.5 -94.5l183 190l36 -180l-186 -191q0 -6 0.5 -19t0.5 -21q0 -124 -37 -297q-154 -742 -548 -742q-40 0 -77 8.5t-77 28.5 t-73.5 59.5t-54.5 95.5l-174 -179zM278 292q7 -53 24 -88t41 -51.5t46 -22t49 -5.5q270 0 402 622q20 100 25 146zM283 512l584 598q-7 52 -24 87t-41 51t-46 21.5t-49 5.5q-79 0 -141.5 -39t-108 -116t-78.5 -173.5t-61 -229.5q-21 -99 -35 -205z" />
<glyph unicode="1" d="M381 1024l417 401h115l-303 -1450h-153l231 1123l-277 -110z" />
<glyph unicode="2" d="M0 0l55 110q45 85 110 178t128 155l476 465q73 71 95.5 95.5t24.5 36.5l8 40q13 61 13 97q0 23 -9 41t-27 28t-35 16.5t-43.5 9t-41 3t-37.5 0.5h-21q-59 0 -102.5 -9.5t-74.5 -30t-51 -41.5t-44 -56l-124 86q31 45 60 75t75 62t111.5 48t149.5 16h21q31 0 55.5 -1 t62 -6.5t66 -15t60 -28t52 -44t34 -65t13.5 -88.5q0 -50 -17 -128l-8 -41q-12 -61 -162 -208l-487 -475q-83 -81 -139 -175h640l-32 -150h-855z" />
<glyph unicode="3" d="M88 246q0 53 13 108l146 -34q-9 -36 -9 -74q0 -34 19.5 -59.5t50 -38t60.5 -18t59 -5.5h21q252 0 310 289l5 20q11 55 11 103q0 197 -159 197h-204v150h195q89 0 154 48.5t76 104.5l9 42q11 47 11 83q0 55 -31.5 84t-107.5 29h-21q-77 0 -149.5 -33t-111.5 -93l-126 82 q62 95 168.5 144.5t218.5 49.5h21q138 0 214 -73.5t76 -184.5q0 -41 -16 -118l-9 -42q-26 -130 -153 -209q95 -96 95 -261q0 -65 -15 -137l-5 -20q-40 -194 -157.5 -299.5t-298.5 -105.5h-21q-148 0 -243.5 75t-95.5 196z" />
<glyph unicode="4" d="M70 352l20 92l825 981h129l-193 -923h109l-32 -150h-108l-74 -352h-153l73 352h-596zM334 502h364l120 574z" />
<glyph unicode="5" d="M35 199l146 58q0 -49 32.5 -80.5t71.5 -41.5t84 -10h79q69 0 124.5 26t92.5 72t61.5 100.5t38.5 119.5l12 59q11 61 11 105q0 36 -7.5 67.5t-24.5 62.5t-52 49t-84 18h-21q-49 0 -124 -49.5t-129 -127.5l-139 110l222 663h650l-31 -150h-511l-118 -354q97 58 180 58h21 q146 0 232 -96.5t86 -250.5q0 -67 -13 -135l-14 -61q-43 -199 -162.5 -317.5t-300.5 -118.5h-79q-75 0 -143 22.5t-122.5 74.5t-68.5 127z" />
<glyph unicode="6" d="M107 326q0 48 14 121l112 542q17 83 55.5 159t95.5 139t138 100.5t174 37.5h21q37 0 64.5 -1.5t75 -11t81 -26t66 -51t46.5 -82.5l-144 -42q-10 33 -51.5 47.5t-137.5 16.5h-21q-116 0 -201.5 -89.5t-115.5 -226.5l-15 -75q105 70 235 70h21q85 0 148.5 -31.5t99.5 -84.5 t53 -115t17 -131q0 -58 -13 -120l-14 -61q-43 -199 -162.5 -317.5t-300.5 -118.5h-21q-142 0 -231 100t-89 251zM257 326q0 -90 46 -145.5t124 -55.5h21q69 0 124.5 26t92.5 72t61.5 100.5t38.5 119.5l12 59q11 61 11 99t-7 70t-24 64t-52 50.5t-85 18.5h-21 q-69 0 -126 -29.5t-94.5 -79t-62 -105t-37.5 -118.5l-13 -61q-9 -40 -9 -85z" />
<glyph unicode="7" d="M119 0q139 319 339 645t432 605h-636l31 150h862l-22 -109l-15 -16q-245 -270 -460 -604.5t-367 -670.5h-164z" />
<glyph unicode="8" d="M95 268q0 65 16 140l7 32q62 260 230 373q-61 59 -61 153q0 34 8 73l9 40q32 150 143 248t249 98h21q138 0 214 -73.5t76 -184.5q0 -43 -16 -120l-9 -40q-26 -130 -153 -209q95 -96 95 -261q0 -65 -15 -137l-5 -20q-40 -194 -157.5 -299.5t-298.5 -105.5h-21 q-91 0 -158.5 27.5t-103.5 72t-53 93.5t-17 100zM245 274q0 -72 41 -110.5t141 -38.5h21q252 0 310 289l5 20q11 55 11 103q0 35 -7.5 66.5t-24.5 62.5t-52 49.5t-84 18.5h-23q-68 0 -125 -30t-95 -80t-62 -106t-37 -118l-5 -20q-14 -66 -14 -106zM437 966q0 -82 146 -82h23 q89 0 154 48.5t76 104.5l9 42q11 47 11 83q0 55 -31.5 84t-107.5 29h-21q-86 0 -157.5 -64t-88.5 -162l-7 -40q-6 -30 -6 -43z" />
<glyph unicode="9" d="M96 148l144 40q10 -38 57.5 -49.5t129.5 -13.5h21q75 0 145.5 54t114.5 129t60 150l17 86q-104 -66 -233 -66h-21q-45 0 -87.5 10t-85.5 36.5t-74.5 66.5t-51.5 105t-20 147q0 43 12 103l6 28q19 87 49 157.5t63 116.5t74.5 80t77 52t77 29t69 13.5t56.5 2.5h21 q99 0 173.5 -51t110.5 -128t36 -166q0 -62 -7 -95l-116 -557q-16 -78 -57 -156.5t-100 -145.5t-140.5 -109t-168.5 -42h-21q-31 0 -53.5 1t-61.5 5.5t-68.5 16t-60.5 29.5t-53.5 49t-33.5 72zM362 843q0 -215 169 -215h21q68 0 124 26.5t93.5 72.5t61.5 100.5t38 118.5l6 27 q12 63 12 107q0 30 -8 60.5t-25.5 62.5t-53 52t-83.5 20h-21q-36 0 -67 -5.5t-71 -26t-71.5 -55t-62 -98t-48.5 -148.5l-6 -28q-8 -42 -8 -71z" />
<glyph unicode=":" d="M315 199q0 59 41 102t105 43q63 0 105 -42.5t42 -102.5t-41.5 -102.5t-105.5 -42.5q-62 0 -104 42.5t-42 102.5zM446 119h2v6h4v-6h2v14h-6l-2 -4v-10zM448 127v2l1 2h3v-4h-4zM456 119h2v8h2v-8h2v8l-1 2h-5v-10zM464 119h2v8h2v-8h2v8l-1 2h-5v-10zM468 917 q0 59 41 102t105 43q63 0 105 -42.5t42 -102.5t-41.5 -102.5t-105.5 -42.5q-62 0 -104 42.5t-42 102.5zM470 99h7l1 2v4l-1 2h-5v4h6v2h-7l-1 -2v-4l1 -2h5v-4h-6v-2zM472 121l1 -2h5v8l-1 2h-5v-2h4v-2h-3l-1 -2v-2zM474 121v2h2v-2h-2zM480 99h2v8h2v-8h2v8l-1 2h-3v4h-2 v-14zM488 101l1 -2h5v10h-2v-8h-2v8h-2v-8zM496 95h5l1 2v12h-5l-1 -2v-6l1 -2h3v-2h-4v-2zM498 101v6h2v-6h-2zM504 101l1 -2h4l1 2v6l-1 2h-4l-1 -2v-6zM506 101v6h2v-6h-2zM512 99h4v2h-2v12h-2v-14zM599 837h2v6h4v-6h2v14h-6l-2 -4v-10zM601 845v2l1 2h3v-4h-4z M609 837h2v8h2v-8h2v8l-1 2h-5v-10zM617 837h2v8h2v-8h2v8l-1 2h-5v-10zM623 817h7l1 2v4l-1 2h-5v4h6v2h-7l-1 -2v-4l1 -2h5v-4h-6v-2zM625 839l1 -2h5v8l-1 2h-5v-2h4v-2h-3l-1 -2v-2zM627 839v2h2v-2h-2zM633 817h2v8h2v-8h2v8l-1 2h-3v4h-2v-14zM641 819l1 -2h5v10h-2 v-8h-2v8h-2v-8zM649 813h5l1 2v12h-5l-1 -2v-6l1 -2h3v-2h-4v-2zM651 819v6h2v-6h-2zM657 819l1 -2h4l1 2v6l-1 2h-4l-1 -2v-6zM659 819v6h2v-6h-2zM665 817h4v2h-2v12h-2v-14z" />
<glyph unicode=";" d="M223 -221q56 8 114 42t58 83q0 16 -8.5 34.5t-23.5 25.5q-55 26 -55 101q0 59 41.5 102t104.5 43t105 -42t42 -103q0 -84 -29.5 -150.5t-79 -106.5t-107.5 -62t-121 -24h-38zM458 859q0 59 41 102t105 43q63 0 105 -42.5t42 -102.5t-41.5 -102.5t-105.5 -42.5 q-62 0 -104 42.5t-42 102.5zM589 779h2v6h4v-6h2v14h-6l-2 -4v-10zM591 787v2l1 2h3v-4h-4zM599 779h2v8h2v-8h2v8l-1 2h-5v-10zM607 779h2v8h2v-8h2v8l-1 2h-5v-10zM613 759h7l1 2v4l-1 2h-5v4h6v2h-7l-1 -2v-4l1 -2h5v-4h-6v-2zM615 781l1 -2h5v8l-1 2h-5v-2h4v-2h-3 l-1 -2v-2zM617 781v2h2v-2h-2zM623 759h2v8h2v-8h2v8l-1 2h-3v4h-2v-14zM631 761l1 -2h5v10h-2v-8h-2v8h-2v-8zM639 755h5l1 2v12h-5l-1 -2v-6l1 -2h3v-2h-4v-2zM641 761v6h2v-6h-2zM647 761l1 -2h4l1 2v6l-1 2h-4l-1 -2v-6zM649 761v6h2v-6h-2zM655 759h4v2h-2v12h-2v-14z " />
<glyph unicode="&#x3c;" d="M175 563l20 94l866 585l-45 -211l-652 -441l465 -440l-36 -172z" />
<glyph unicode="=" d="M100 325v150h822v-150h-822zM194 767v150h822v-150h-822z" />
<glyph unicode="&#x3e;" d="M46 -43l45 211l653 442l-465 439l36 174l618 -586l-20 -94z" />
<glyph unicode="?" d="M252 1078q32 161 146.5 254t297.5 93h21q342 0 342 -252q0 -53 -16 -124l-8 -40q-16 -83 -130 -184l-175 -153q-39 -35 -82 -105t-49 -103l-27 -134h-153l34 166q12 59 67.5 149t111.5 139l173 153q77 68 84 102l8 40q12 55 12 92q0 61 -41.5 82.5t-150.5 21.5h-21 q-250 0 -298 -226zM269 11q0 62 47 107.5t114 45.5q65 0 113.5 -43.5t48.5 -109.5t-48 -109.5t-114 -43.5q-64 0 -112.5 44.5t-48.5 108.5z" />
<glyph unicode="@" d="M69 456q0 125 34 291q21 102 55.5 196t88 183t119 154.5t154 105t187.5 39.5q93 0 166 -26t113.5 -63.5t67.5 -85t35.5 -84.5t8.5 -68q0 -12 -2 -22l-151 -738h-155l10 49q-56 -27 -110 -27q-116 0 -173.5 65.5t-57.5 169.5q0 55 19 154q18 86 51.5 150t68.5 96.5 t78.5 52t72.5 24t59 4.5h132l2 10q3 15 3 28q0 74 -72 117.5t-166 43.5q-163 0 -284.5 -154.5t-173.5 -403.5q-30 -146 -30 -261q0 -58 9.5 -110.5t32 -105t68 -84t109.5 -31.5q99 0 170 13t123 52l90 -120q-78 -58 -173 -76.5t-210 -18.5q-170 0 -269.5 129t-99.5 352z M609 595q0 -50 19 -67.5t62 -17.5q48 0 103 55t62 90l57 271h-104q-64 0 -110.5 -44.5t-71.5 -162.5q-17 -93 -17 -124z" />
<glyph unicode="A" d="M0 0l658 1425h122l70 -1425h-150l-12 249h-408l-115 -249h-165zM349 399h331l-32 647z" />
<glyph unicode="B" d="M29 0l289 1400h337q25 0 48.5 -1t60.5 -6t67 -14t63.5 -25.5t56 -39.5t37.5 -58.5t15 -79.5t-18 -127l-8 -39q-34 -157 -137 -227q93 -84 93 -222q0 -41 -11 -91l-30 -148q-67 -322 -438 -322h-425zM213 150h241q78 0 133.5 16t86.5 47t47 63t25 76l30 148q7 34 7 61 q0 26 -7 49.5t-25 48t-56.5 39t-94.5 14.5h-271zM360 862h182q101 0 161 20.5t87.5 57.5t40.5 100l8 39q14 68 14 93q0 47 -40 62.5t-158 15.5h-215z" />
<glyph unicode="C" d="M123 372q0 142 49 375q16 75 32 136.5t41.5 133.5t54.5 128.5t70.5 110.5t89 89.5t111 57.5t136.5 22q41 0 79.5 -8.5t79.5 -32t72 -60.5t54 -100t28 -145l-150 -10q-4 66 -20 109.5t-41.5 63t-48.5 26.5t-53 7q-79 0 -141.5 -39t-108.5 -115.5t-78.5 -173.5t-60.5 -230 q-45 -207 -45 -345q0 -62 10.5 -108.5t26 -72.5t38.5 -41.5t44 -20t46 -4.5q164 0 278 224l134 -68q-157 -306 -412 -306q-43 0 -83.5 9.5t-84 36.5t-75 69.5t-52 115t-20.5 166.5z" />
<glyph unicode="D" d="M29 0l289 1400h384q73 0 130 -25.5t92 -66t57.5 -96.5t31 -112t8.5 -118q0 -99 -18 -178l-45 -210q-25 -116 -62 -209.5t-75 -154t-84.5 -105.5t-85 -68.5t-82 -37t-70.5 -16.5t-55 -3h-415zM213 150h231q64 0 119 30t93.5 76.5t70 112t51 127t34.5 130.5l45 210 q14 65 14 144q0 141 -36 205.5t-133 64.5h-262z" />
<glyph unicode="E" d="M29 0l289 1400h830l-31 -150h-677l-80 -388h567l-31 -150h-567l-116 -561h675l-31 -151h-828z" />
<glyph unicode="F" d="M27 0l291 1400h830l-31 -150h-677l-81 -388h568l-31 -150h-568l-148 -712h-153z" />
<glyph unicode="G" d="M122 389q0 121 25 236l57 267q22 104 57 188.5t72 139t83 94.5t84.5 60.5t82 33t70 15t54.5 2.5q42 0 80 -8.5t79.5 -32t72.5 -60.5t53.5 -100t27.5 -145l-150 -10q-4 66 -20 109.5t-41.5 63t-48.5 26.5t-53 7q-20 0 -38 -2t-48.5 -11t-57 -24.5t-59 -47t-59 -73.5 t-52 -108.5t-43.5 -148.5l-57 -267q-21 -97 -21 -204q0 -148 42.5 -206t123.5 -58q210 0 295 157l53 260h-182v150h366l-95 -460q-130 -257 -437 -257q-45 0 -85 9t-84 36.5t-75 72t-51.5 120.5t-20.5 176z" />
<glyph unicode="H" d="M27 0l291 1396h153l-122 -589h491l123 589h153l-291 -1396h-153l137 657h-491l-138 -657h-153z" />
<glyph unicode="I" d="M-3 0l32 150h354l233 1100h-353l31 150h869l-31 -150h-363l-233 -1100h362l-32 -150h-869z" />
<glyph unicode="J" d="M32 203l150 10q0 -54 47 -74q34 -14 94 -14h21q92 0 157.5 59t88.5 168l186 898h-255l32 150h604l-31 -150h-197l-193 -928q-34 -160 -140.5 -253.5t-251.5 -93.5h-21q-94 0 -152 25q-135 56 -139 203z" />
<glyph unicode="K" d="M27 0l292 1400h153l-138 -663l608 663h204l-560 -610l270 -790h-159l-227 664l-196 -214l-94 -450h-153z" />
<glyph unicode="L" d="M29 0l290 1400h153l-259 -1249h673l-32 -151h-825z" />
<glyph unicode="M" d="M-68 0l409 1400h153l60 -771l380 771h160l-177 -1400h-151l122 968l-374 -758h-78l-60 776l-288 -986h-156z" />
<glyph unicode="N" d="M26 0l292 1400h130l300 -1040l216 1040h153l-291 -1400h-130l-300 1039l-216 -1039h-154z" />
<glyph unicode="O" d="M123 373q0 147 38 325l21 97q23 101 49 183t70 168.5t97.5 145t133 96t175.5 37.5q43 0 81.5 -8t83.5 -35t76.5 -70t53 -121t21.5 -181q0 -117 -27 -244l-29 -137q-13 -59 -28.5 -115t-41 -123t-55.5 -124.5t-72 -112.5t-90 -93.5t-110.5 -62t-131.5 -23.5 q-43 0 -83.5 9.5t-84 36.5t-75 69.5t-52 115.5t-20.5 167zM273 373q0 -62 10.5 -108.5t26 -72.5t38.5 -42t44 -20.5t46 -4.5q66 0 124 37.5t98 93t74 131.5t53 140.5t34 133.5l29 135q23 107 23 214q0 131 -36 198t-130 67q-49 0 -90 -13t-84.5 -47.5t-79 -90.5t-68 -147.5 t-57.5 -213.5l-19 -95q-36 -188 -36 -295z" />
<glyph unicode="P" d="M27 0l291 1400h394q122 0 191 -20q157 -44 157 -204q0 -47 -17 -128l-19 -91q-33 -160 -141 -237.5t-296 -77.5h-273l-134 -642h-153zM345 792h242q77 0 131 14.5t85.5 42.5t48 60t26.5 78l19 91q13 66 13 100q0 30 -10.5 40t-36.5 18q-52 14 -151 14h-272z" />
<glyph unicode="Q" d="M123 373q0 147 38 325l21 97q23 101 49 183t70 168.5t97.5 145t133 96t175.5 37.5q43 0 81.5 -8t83.5 -35t76.5 -70t53 -121t21.5 -181q0 -117 -27 -244l-29 -137q-32 -153 -96 -300.5t-162 -241.5l79 -204l-140 -54l-67 174q-67 -28 -143 -28q-43 0 -83.5 9.5t-84 36.5 t-75 69.5t-52 115.5t-20.5 167zM273 373q0 -62 10.5 -108.5t26 -72.5t38.5 -42t44 -20.5t46 -4.5q48 0 89 18l-88 229l140 54l70 -182q113 144 172 417l29 135q23 107 23 214q0 131 -36 198t-130 67q-49 0 -90 -13t-84.5 -47.5t-79 -90.5t-68 -147.5t-57.5 -213.5l-19 -95 q-36 -188 -36 -295z" />
<glyph unicode="R" d="M27 0l291 1400h395q121 0 190 -20q157 -44 157 -204q0 -46 -17 -127l-19 -91q-58 -278 -351 -311l196 -647h-156l-195 642h-204l-134 -642h-153zM345 792h242q76 0 130.5 14.5t86 42.5t48 60.5t26.5 78.5l19 90q13 66 13 100q0 30 -10.5 40t-36.5 18q-52 14 -150 14h-273 z" />
<glyph unicode="S" d="M49 317q0 28 5 54l148 -28q-3 -20 -3 -26q0 -73 69 -132.5t159 -59.5h21q110 0 206.5 70.5t114.5 156.5l6 30q4 20 4 47q0 68 -24.5 132t-72.5 88l-276 134q-89 44 -125.5 82.5t-36.5 105.5q0 39 8 78l7 29q30 146 158.5 246.5t285.5 100.5h8q76 0 141 -16t115.5 -48 t79.5 -84t29 -120v-4q0 -37 -13 -104l-148 28q11 59 11 71q0 47 -35.5 77t-81 40t-98.5 10h-8q-108 0 -193.5 -68t-104.5 -158l-6 -30q-6 -31 -6 -44q0 -11 17 -23.5t62 -34.5l278 -134q54 -26 92 -73t55.5 -100.5t24.5 -97t7 -83.5q0 -37 -8 -77l-6 -30 q-29 -140 -167 -243.5t-300 -103.5h-21q-152 0 -265 102.5t-113 239.5z" />
<glyph unicode="T" d="M235 1250l31 150h904l-31 -150h-376l-260 -1250h-154l261 1250h-375z" />
<glyph unicode="U" d="M86 231q0 51 15 121l218 1048h153l-225 -1078q-11 -54 -11 -93q0 -36 10.5 -54t32.5 -28q48 -22 148 -22h21q251 0 298 227l218 1048h153l-225 -1078q-34 -161 -147.5 -254t-296.5 -93h-21q-134 0 -211 36q-130 61 -130 220z" />
<glyph unicode="V" d="M291 1400h150l48 -1083l500 1083h165l-657 -1425h-143z" />
<glyph unicode="W" d="M49 0l178 1400h151l-121 -968l374 758h78l59 -775l288 985h156l-409 -1400h-153l-59 770l-380 -770h-162z" />
<glyph unicode="X" d="M5 0l486 713l-181 687h155l138 -523l356 523h181l-487 -714l181 -686h-155l-137 521l-356 -521h-181z" />
<glyph unicode="Y" d="M304 1400h152l116 -673l398 673h174l-540 -915l-109 -510h-154l116 539z" />
<glyph unicode="Z" d="M-3 0l28 134l890 1116h-657l31 150h858l-28 -136l-888 -1113h656l-32 -151h-858z" />
<glyph unicode="[" d="M189 -155l357 1710h528l-32 -150h-374l-295 -1410h376l-32 -150h-528z" />
<glyph unicode="\" d="M328 1408l146 34l343 -1450l-146 -34z" />
<glyph unicode="]" d="M71 -155l32 150h374l294 1410h-375l32 150h527l-356 -1710h-528z" />
<glyph unicode="^" d="M302 1040l354 385h129l197 -403l-134 -66l-146 297l-290 -315z" />
<glyph unicode="_" d="M35 -17h742v-150h-742v150z" />
<glyph unicode="`" d="M464 1346q0 66 52 101q26 18 65 18q36 0 68 -17t47 -48l164 -350q9 -21 9 -40q0 -34 -29 -56q-14 -10 -43 -10q-40 0 -61 26l-244 298q-28 32 -28 78z" />
<glyph unicode="a" d="M108 331q0 53 12 112l35 169q41 197 161.5 317t301.5 120h21q152 0 237 -71l9 46h154l-147 -702q-7 -34 -7 -64q0 -89 66 -120l-31 -152q-68 20 -103.5 57.5t-46.5 71.5q-127 -140 -322 -140h-21q-143 0 -231 100t-88 256zM258 333q0 -91 44.5 -149.5t124.5 -58.5h21 q129 0 207.5 84t104.5 215l40 188q18 94 18 139q0 73 -40 110.5t-139 37.5h-21q-68 0 -124 -26t-93.5 -72t-61.5 -100.5t-38 -118.5l-35 -171q-8 -43 -8 -78z" />
<glyph unicode="b" d="M27 0l292 1400h153l-87 -416q102 65 233 65h21q175 0 251 -78.5t76 -219.5q0 -69 -20 -169l-35 -170q-41 -198 -161.5 -317.5t-301.5 -119.5h-21q-142 0 -231 99l-16 -74h-153zM257 329q0 -91 45 -147.5t125 -56.5h21q132 0 210 89.5t107 227.5l35 170q18 92 18 139 q0 73 -40 110.5t-139 37.5h-21q-129 0 -207 -85.5t-106 -217.5l-39 -185q-9 -43 -9 -82z" />
<glyph unicode="c" d="M107 326q0 58 13 117l35 169q41 197 161.5 317t301.5 120h21q76 0 133.5 -11.5t92.5 -30t59 -47t35.5 -55.5t19.5 -64l-148 -22q-3 15 -5 20.5t-13.5 19.5t-30 20.5t-55.5 12.5t-88 6h-21q-69 0 -124.5 -26t-93 -72t-62 -100t-37.5 -118l-35 -171q-9 -40 -9 -85 q0 -91 46.5 -146t123.5 -55h21q105 0 165.5 23.5t92.5 77.5l128 -76q-57 -94 -152.5 -134.5t-233.5 -40.5h-21q-142 0 -231 100t-89 251z" />
<glyph unicode="d" d="M108 331q0 53 12 112l35 169q41 197 161.5 317t301.5 120h21q154 0 237 -71l88 422h153l-297 -1425h-153l13 64q-103 -64 -232 -64h-21q-143 0 -231 100t-88 256zM257 329q0 -91 45 -147.5t125 -56.5h21q127 0 205.5 83t105.5 211l41 193q19 95 19 139q0 72 -40 110 t-140 38h-21q-69 0 -124.5 -26t-93 -72t-62 -100t-37.5 -119l-35 -171q-9 -43 -9 -82z" />
<glyph unicode="e" d="M84 218q0 55 16 133l81 383q66 315 437 315h21q161 0 253 -61.5t92 -190.5q0 -40 -11 -93l-47 -218h-644l-34 -163q-13 -62 -13 -95q0 -56 41 -79.5t151 -23.5h21q110 0 171.5 26t91.5 85l134 -68q-53 -103 -152.5 -148t-244.5 -45h-21q-183 0 -263 59.5t-80 183.5z M313 636h491l21 98q8 35 8 61q0 53 -43 78.5t-151 25.5h-21q-77 0 -131.5 -14.5t-86 -43t-47.5 -60.5t-26 -77z" />
<glyph unicode="f" d="M-86 -254l134 66q7 -14 37.5 -31.5t59.5 -17.5q60 0 115 42t63 82l182 865h-231v150h263l63 298q23 104 111.5 166t208.5 62q29 0 55 -3t46 -8.5t36.5 -11.5t30 -15.5t22.5 -16.5t17 -17.5t12 -15t9.5 -13.5t5.5 -10l-134 -68q-19 29 -100 29q-74 0 -119 -32t-55 -78 l-56 -266h268v-150h-300l-189 -895q-21 -101 -114 -172.5t-210 -71.5q-69 0 -122.5 30.5t-108.5 102.5z" />
<glyph unicode="g" d="M108 331q0 53 12 112l35 169q41 197 161.5 317t301.5 120h21q158 0 237 -67l9 42h154l-220 -1039q-33 -160 -154 -257t-304 -97h-244l31 150h213q126 0 207 62.5t105 171.5l4 23q-100 -63 -229 -63h-21q-143 0 -231 100t-88 256zM258 329q0 -92 44.5 -148t124.5 -56h21 q122 0 200.5 74.5t103.5 190.5l58 276q10 52 10 88q0 70 -41.5 107.5t-139.5 37.5h-21q-68 0 -124 -26t-93.5 -72t-61.5 -100.5t-38 -118.5l-35 -171q-8 -37 -8 -82z" />
<glyph unicode="h" d="M27 0l292 1400h153l-93 -448q119 97 239 97h21q343 0 343 -257q0 -40 -9 -88l-148 -704h-153l153 734q3 18 3 35q0 61 -47.5 95.5t-141.5 34.5h-21q-63 0 -134 -55t-120 -127t-61 -130l-123 -587h-153z" />
<glyph unicode="i" d="M102 0l32 150h249l148 724h-246l31 150h399l-179 -874h243l-32 -150h-645zM592 1317q0 42 29.5 72t71.5 30t72.5 -30t30.5 -72t-30.5 -72t-72.5 -30t-71.5 30t-29.5 72z" />
<glyph unicode="j" d="M130 -149l150 6q4 -32 26.5 -50.5t40.5 -22t36 -3.5q150 0 178 125l200 968h-377l32 150h529l-238 -1150q-24 -115 -111.5 -179t-212.5 -64q-23 0 -48 3.5t-60.5 17.5t-63.5 36t-51 64.5t-30 98.5zM763 1317q0 42 29.5 72t71.5 30t72.5 -30t30.5 -72t-30.5 -72t-72.5 -30 t-71.5 30t-29.5 72z" />
<glyph unicode="k" d="M26 0l298 1425h153l-178 -854q77 105 146 170l108 101q129 123 259 179l116 50l58 -138l-104 -44q-110 -48 -225 -155l-108 -103q-43 -41 -69 -72q17 -118 72.5 -230.5t137.5 -183.5l169 -145h-231l-36 31q-156 135 -229 369q-83 -128 -156 -271l-27 -129h-154z" />
<glyph unicode="l" d="M103 0l31 150h249l227 1100h-246l32 150h398l-258 -1250h242l-31 -150h-644z" />
<glyph unicode="m" d="M-19 0l221 1049h147l-7 -26q54 26 119 26h11q128 0 176 -71q87 71 181 71h12q204 0 204 -176q0 -42 -9 -79l-165 -794h-153l172 824q4 20 4 36q0 22 -12 30.5t-41 8.5h-12q-53 0 -107.5 -57t-70.5 -132l-149 -710h-153l154 735q16 77 16 113q0 31 -11 41t-36 10h-11 q-52 0 -105.5 -49t-67.5 -118l-154 -732h-153z" />
<glyph unicode="n" d="M27 0l214 1024h153l-15 -72q119 97 239 97h21q344 0 344 -251q0 -41 -11 -94l-147 -704h-153l154 734q7 32 7 60q0 61 -44 83t-150 22h-21q-94 0 -195.5 -111t-121.5 -206l-121 -582h-153z" />
<glyph unicode="o" d="M107 326q0 58 13 117l35 169q41 197 161.5 317t301.5 120h21q77 0 136.5 -18.5t95 -48t58 -70t31 -79t8.5 -81.5q0 -69 -22 -170l-35 -170q-41 -198 -161.5 -317.5t-301.5 -119.5h-21q-142 0 -231 100t-89 251zM257 326q0 -90 46 -145.5t124 -55.5h21q132 0 210 89.5 t107 227.5l35 170q18 90 18 140q0 83 -45.5 115t-133.5 32h-21q-69 0 -124.5 -26t-93 -72t-62 -100t-37.5 -119l-35 -171q-9 -40 -9 -85z" />
<glyph unicode="p" d="M-53 -384l294 1408h153l-8 -40q101 65 232 65h21q327 0 327 -297q0 -78 -20 -170l-35 -170q-41 -198 -161.5 -317.5t-301.5 -119.5h-21q-142 0 -231 100l-96 -459h-153zM257 329q0 -91 45 -147.5t125 -56.5h21q69 0 124.5 26t93 71.5t61.5 100t38 119.5l35 170 q18 94 18 139q0 73 -40 110.5t-139 37.5h-21q-129 0 -207.5 -86t-105.5 -217l-39 -185q-9 -42 -9 -82z" />
<glyph unicode="q" d="M108 331q0 53 12 112l35 169q41 197 161.5 317t301.5 120h21q152 0 237 -71l9 46h154l-294 -1408h-153l88 423q-101 -64 -232 -64h-21q-143 0 -231 100t-88 256zM258 329q0 -92 44.5 -148t124.5 -56h21q128 0 206.5 82.5t104.5 210.5l41 194q18 92 18 139q0 72 -39.5 110 t-139.5 38h-21q-68 0 -124 -26t-93.5 -72t-61.5 -100.5t-38 -118.5l-35 -171q-8 -37 -8 -82z" />
<glyph unicode="r" d="M27 0l214 1024h153l-29 -136q166 161 334 161h21q235 0 287 -160l-142 -50q-3 11 -8.5 19t-19.5 18.5t-43.5 16.5t-73.5 6h-21q-77 0 -169.5 -68.5t-163 -172.5t-91.5 -203l-95 -455h-153z" />
<glyph unicode="s" d="M55 263q0 37 10 89l148 -30q-8 -32 -8 -58q0 -66 52.5 -102.5t134.5 -36.5h56q104 0 186 40t95 104l6 31q3 15 3 23q0 26 -29 51t-73 42l-280 108q-73 28 -119.5 91t-46.5 142q0 54 23 103.5t71 93t134 69.5t200 26h21q129 0 229.5 -76t109.5 -207q0 -36 -5 -62l-148 30 q3 12 3 23q0 61 -56.5 101.5t-132.5 40.5h-21q-143 0 -210 -41t-67 -97q0 -31 19.5 -58.5t49.5 -38.5l280 -108q101 -39 149.5 -103.5t48.5 -133.5q0 -17 -3 -32l-8 -46q-12 -70 -58 -124t-110.5 -83.5t-130.5 -44t-130 -14.5h-56q-141 0 -239 85t-98 203z" />
<glyph unicode="t" d="M177 858l31 150h236l87 417h154l-88 -417h362l-32 -150h-362l-137 -656q-1 -4 -1 -13q0 -57 101 -64h20q54 0 106.5 30t63.5 77l146 -34q-22 -97 -114.5 -160t-201.5 -63h-20q-127 9 -190 66.5t-63 140.5q0 21 5 48l132 628h-235z" />
<glyph unicode="u" d="M86 227q0 58 15 127l140 670h153l-147 -704q-12 -56 -12 -92q0 -62 38 -82.5t131 -20.5h21q64 0 143 62.5t134.5 143t67.5 138.5l116 555h153l-214 -1024h-153l20 95q-137 -120 -267 -120h-21q-167 0 -242.5 64.5t-75.5 187.5z" />
<glyph unicode="v" d="M211 891q0 88 6 124l1 9h151l-4 -29q-4 -40 -4 -104q0 -248 32 -362l65 -255l125 272q96 211 276 455l16 23h182l-76 -111q-191 -274 -264 -433l-231 -505h-106l-133 516q-36 132 -36 400z" />
<glyph unicode="w" d="M67 0l12 431q6 208 55 516l12 77h152l-16 -101q-47 -294 -52 -484l-1 -16l20 41q30 61 81 148t96 143l159 194h91l11 -244q9 -185 30 -259l25 -87l24 90q82 307 172 519l25 56h163l-50 -116q-89 -212 -166 -499l-109 -409h-115l-113 406q-24 87 -34 250 q-76 -95 -158 -262l-190 -394h-124z" />
<glyph unicode="x" d="M-6 0l199 181q102 93 276 305l-222 538h162l167 -404q126 162 222 308l63 96h180l-117 -178q-128 -194 -282 -385l190 -461h-163l-136 330q-5 -6 -33 -38.5t-36 -41.5t-31.5 -36t-35.5 -39.5t-31.5 -33.5t-35.5 -37t-33 -31l-80 -73h-223z" />
<glyph unicode="y" d="M-46 -146q0 22 4 49l148 -26q-1 -4 -1 -11q0 -33 28.5 -59t73.5 -26q53 0 106 44.5t79 99.5l87 186q-198 384 -231 913h151q28 -424 163 -737l345 737h166l-549 -1169q-19 -40 -62 -89t-114.5 -92t-140.5 -43q-102 0 -177.5 64t-75.5 159z" />
<glyph unicode="z" d="M-6 0l27 126l784 748h-571l31 150h809l-26 -125l-786 -749h630l-31 -150h-867z" />
<glyph unicode="{" d="M202 689l32 150h13q76 0 134 55.5t73 123.5l52 240q30 138 141.5 217.5t252.5 79.5h137l-31 -150h-106q-92 0 -161 -49t-87 -130l-52 -240q-15 -70 -58.5 -134t-107.5 -106q61 -84 61 -209q0 -40 -10 -90l-63 -304q-4 -19 -4 -41q0 -107 150 -107h138l-32 -150h-106 q-131 0 -215.5 67t-84.5 190q0 33 8 71l63 304q6 31 6 60q0 80 -28 116t-70 36h-45z" />
<glyph unicode="|" d="M330 -78l333 1554h153l-333 -1554h-153z" />
<glyph unicode="}" d="M23 -155l32 150h103q92 0 161 49t87 130l50 238q17 79 63 159t113 133q-64 72 -64 190q0 40 10 90l58 273q4 20 4 43q0 105 -150 105h-135l31 150h104q72 0 127.5 -17t87.5 -43t52 -62t26.5 -67.5t6.5 -65.5q0 -35 -8 -73l-57 -275q-6 -29 -6 -58q0 -121 106 -121h46 l-32 -150h-14q-73 0 -137 -73t-85 -170l-51 -238q-30 -138 -141.5 -217.5t-252.5 -79.5h-135z" />
<glyph unicode="~" d="M214 866q46 92 119.5 144t156.5 52h15q37 0 78 -16.5t69 -52.5l64 -69q15 -16 26 -16h15q77 0 134 105l132 -72q-49 -89 -117.5 -136t-148.5 -47h-15q-76 0 -136 64l-69 75q-3 4 -14.5 9.5t-17.5 5.5h-15q-41 0 -78.5 -31.5t-63.5 -82.5z" />
<glyph unicode="&#xa0;" />
<glyph unicode="&#xa2;" d="M107 328q0 59 13 115l35 169q41 197 161.5 316.5t301.5 119.5h21q23 0 59 -2l74 183h162l-87 -215q38 -17 64.5 -40t40 -51.5t17.5 -42t10 -39.5l-148 -22l-1 6q-1 6 -2 8t-3 8t-4.5 9.5t-6.5 8t-10 8.5t-13 8l-303 -749q85 4 137 27.5t81 72.5l128 -76 q-57 -94 -152.5 -134.5t-233.5 -40.5h-21l-35 -86h-162l49 121q-81 42 -126.5 126t-45.5 192zM257 328q0 -125 79 -177l303 747h-21q-69 0 -124.5 -26t-93 -72t-62 -100t-37.5 -118l-35 -171q-9 -45 -9 -83z" />
<glyph unicode="&#xa3;" d="M-28 104l42 21q106 53 205 161t118 199l9 46q3 18 3 56q0 41 -3 69h-232l31 150h150l-23 64q-32 87 -32 144q0 11 4 31l8 33q41 166 155.5 256.5t288.5 90.5h21q98 0 180 -38.5t124 -119.5l-132 -70q-19 36 -63.5 57t-108.5 21h-21q-119 0 -197 -56.5t-101 -170.5l-6 -30 q-1 -4 -1 -12q0 -25 21 -84l43 -116h441l-32 -150h-367q2 -26 2 -56q0 -67 -7 -99l-9 -46q-26 -124 -141 -256h30q104 0 138 -22l72 -46q10 -6 22 -6h52q50 0 97 15t66 32l98 -114q-48 -41 -123 -62t-138 -21h-52q-56 0 -100 28l-59 38q-13 8 -73 8h-43q-77 0 -125 -10.5 t-122 -47.5l-42 -21z" />
<glyph unicode="&#xa5;" d="M9 48l32 150h350l22 108h-350l32 150h350l12 58l-156 886h153l118 -673l395 673h175l-538 -914l-6 -30h350l-32 -150h-350l-22 -108h350l-32 -150h-349l-44 -208h-152l43 208h-351z" />
<glyph unicode="&#xa8;" d="M374 1526q0 56 37.5 91t87.5 35q53 0 89.5 -37.5t36.5 -88.5q0 -54 -37 -93t-88 -39t-88.5 39t-37.5 93zM811 1526q0 53 37.5 89.5t87.5 36.5q49 0 86.5 -35t37.5 -91t-37.5 -94t-86.5 -38q-50 0 -87.5 39t-37.5 93z" />
<glyph unicode="&#xa9;" d="M0 614q0 94 35 181t99 155t163.5 108.5t220.5 40.5q107 0 198 -30.5t154.5 -81.5t108.5 -118t66 -139.5t21 -146.5q0 -91 -35 -176t-99 -153t-165.5 -109t-224.5 -41q-128 0 -233.5 44t-171.5 116.5t-101.5 162.5t-35.5 187zM150 614q0 -150 105 -255t287 -105 q90 0 163 28.5t118 75.5t69 105t24 120q0 64 -23 126t-69 117t-125.5 89t-180.5 34q-88 0 -159.5 -28t-116 -75.5t-68.5 -107t-24 -124.5zM229 606q0 115 81 200t216 85q131 0 218 -74l-98 -114q-45 38 -120 38q-71 0 -109 -41t-38 -94q0 -58 42.5 -95t119.5 -37 q76 0 114 38l104 -108q-83 -80 -218 -80q-140 0 -226 81t-86 201z" />
<glyph unicode="&#xab;" d="M149 419l28 126l255 316l116 -94l-233 -288l-10 -48l109 -280l-140 -54zM569 419l28 126l255 316l116 -94l-233 -288l-10 -48l109 -280l-140 -54z" />
<glyph unicode="&#xad;" d="M127 525v150h822v-150h-822z" />
<glyph unicode="&#xae;" d="M5 595q0 86 22.5 168.5t67.5 154.5t108 126.5t149.5 86t185.5 31.5q127 0 230.5 -49t168 -129.5t99.5 -181t35 -207.5q0 -106 -35.5 -204.5t-101 -176.5t-168.5 -125t-228 -47t-228 46.5t-168.5 124t-101 176t-35.5 206.5zM155 595q0 -78 24.5 -149.5t70.5 -128.5 t120.5 -91t167.5 -34q75 0 138.5 23t108 61.5t75.5 90.5t46 109.5t15 118.5q0 63 -15 123t-46 113.5t-75.5 93.5t-108 63.5t-138.5 23.5q-90 0 -164.5 -35.5t-121 -94.5t-72 -133t-25.5 -154zM316 326v571h239q64 0 110 -13t68.5 -29.5t35 -43t14.5 -43t2 -39.5v-40 q0 -112 -103 -156l104 -167l-128 -79l-138 224h-54v-185h-150zM466 661h89q36 0 55 5t22 9.5t3 13.5v40q0 18 -80 18h-89v-86z" />
<glyph unicode="&#xb4;" d="M495 1312l335 363l143 -132l-335 -363z" />
<glyph unicode="&#xb8;" d="M139 -384l110 101q49 -53 130 -53q82 0 113 22t31 76q0 31 -97 31h-99l61 217v78h150v-98l-15 -57q76 -18 113 -70t37 -119q0 -75 -43 -134q-69 -96 -251 -96q-145 0 -240 102z" />
<glyph unicode="&#xbb;" d="M84 171l232 287l10 48l-108 281l140 54l124 -323l-28 -126l-254 -315zM504 171l232 287l10 48l-108 281l140 54l124 -323l-28 -126l-254 -315z" />
<glyph unicode="&#x2c6;" d="M497 1524l187 114h154l146 -120l-96 -118l-129 108l-184 -112z" />
<glyph unicode="&#x2da;" d="M525 1425q0 84 58 143t142 59t144 -59t60 -143t-60 -143t-144 -59t-142 59t-58 143zM635 1425q0 -38 26.5 -65t64.5 -27t65.5 27t27.5 65t-27.5 65t-65.5 27t-64.5 -27t-26.5 -65z" />
<glyph unicode="&#x2dc;" d="M413 1555l26 26q29 29 52 48.5t63 38.5t78 19h16q40 0 85.5 -16t72.5 -44l16 -18q12 -12 28 -12h17q30 0 54 16t55 48l22 23l108 -104l-22 -23q-29 -31 -55 -51.5t-70.5 -39.5t-91.5 -19h-17q-84 0 -140 62l-14 16q-12 12 -28 12h-16q-27 0 -50.5 -14.5t-56.5 -47.5 l-26 -28z" />
<glyph unicode="&#x400;" d="M29 0l289 1400h830l-31 -150h-677l-80 -388h567l-31 -150h-567l-116 -561h675l-31 -151h-828zM563 1664l156 115l200 -272l-156 -115z" />
<glyph unicode="&#x401;" d="M29 0l289 1400h830l-31 -150h-677l-80 -388h567l-31 -150h-567l-116 -561h675l-31 -151h-828zM374 1592q0 56 37.5 91t87.5 35q53 0 89.5 -37.5t36.5 -88.5q0 -54 -37 -93t-88 -39t-88.5 39t-37.5 93zM811 1592q0 53 37.5 89.5t87.5 36.5q49 0 86.5 -35t37.5 -91 t-37.5 -94t-86.5 -38q-50 0 -87.5 39t-37.5 93z" />
<glyph unicode="&#x402;" d="M234 0l261 1250h-258l31 150h776l-31 -150h-365l-75 -358q99 87 182 87h20q17 0 38.5 -2.5t59.5 -14t67.5 -31t52 -59t22.5 -92.5q0 -29 -9 -76l-80 -383q-12 -59 -34.5 -112t-57 -102t-86.5 -78t-115 -29h-21v150h21q49 0 88 54.5t59 146.5l80 383q5 22 5 46 q0 30 -23 39.5t-67 9.5h-20q-11 0 -34.5 -13t-59 -45t-70 -77.5t-67.5 -120t-52 -163.5l-86 -410h-152z" />
<glyph unicode="&#x403;" d="M27 0l291 1400h826l-29 -151h-675l-260 -1249h-153zM607 1525l315 271l127 -148l-315 -271z" />
<glyph unicode="&#x404;" d="M123 373q0 147 38 325l21 97q23 101 49 183t70 168.5t97.5 145t133 96t175.5 37.5q42 0 80.5 -8.5t79 -32t71.5 -60t53.5 -97.5t28.5 -139l-150 -12q-5 64 -21.5 106t-41.5 61t-48 25.5t-52 6.5q-57 0 -104.5 -19.5t-95 -67t-88.5 -137t-74 -220.5l349 -1v-149h-382 q-39 -185 -39 -308q0 -62 10.5 -108.5t26 -72.5t38.5 -42t44 -20.5t46 -4.5q162 0 277 223l134 -68q-77 -151 -182 -228t-229 -77q-43 0 -83.5 9.5t-84 36.5t-75 69.5t-52 115.5t-20.5 167z" />
<glyph unicode="&#x405;" d="M49 317q0 28 5 54l148 -28q-3 -20 -3 -26q0 -73 69 -132.5t159 -59.5h21q110 0 206.5 70.5t114.5 156.5l6 30q4 20 4 47q0 68 -24.5 132t-72.5 88l-276 134q-89 44 -125.5 82.5t-36.5 105.5q0 39 8 78l7 29q30 146 158.5 246.5t285.5 100.5h8q76 0 141 -16t115.5 -48 t79.5 -84t29 -120v-4q0 -37 -13 -104l-148 28q11 59 11 71q0 47 -35.5 77t-81 40t-98.5 10h-8q-108 0 -193.5 -68t-104.5 -158l-6 -30q-6 -31 -6 -44q0 -11 17 -23.5t62 -34.5l278 -134q54 -26 92 -73t55.5 -100.5t24.5 -97t7 -83.5q0 -37 -8 -77l-6 -30 q-29 -140 -167 -243.5t-300 -103.5h-21q-152 0 -265 102.5t-113 239.5z" />
<glyph unicode="&#x406;" d="M-3 0l32 150h354l233 1100h-353l31 150h869l-31 -150h-363l-233 -1100h362l-32 -150h-869z" />
<glyph unicode="&#x407;" d="M-3 0l32 150h354l233 1100h-353l31 150h869l-31 -150h-363l-233 -1100h362l-32 -150h-869zM375 1594q0 56 37.5 91t87.5 35q53 0 89.5 -37.5t36.5 -88.5q0 -54 -37 -93t-88 -39t-88.5 39t-37.5 93zM812 1594q0 53 37.5 89.5t87.5 36.5q49 0 86.5 -35t37.5 -91t-37.5 -94 t-86.5 -38q-50 0 -87.5 39t-37.5 93z" />
<glyph unicode="&#x408;" d="M32 203l150 10q0 -54 47 -74q34 -14 94 -14h21q92 0 157.5 59t88.5 168l186 898h-255l32 150h604l-31 -150h-197l-193 -928q-34 -160 -140.5 -253.5t-251.5 -93.5h-21q-94 0 -152 25q-135 56 -139 203z" />
<glyph unicode="&#x409;" d="M-38 0l339 1097q35 114 108.5 208.5t144.5 94.5h259l-109 -528q146 -4 229 -84.5t83 -212.5q0 -42 -11 -95l-32 -158q-33 -159 -139 -240.5t-299 -81.5h-171l265 1250h-63q-25 -18 -61.5 -70.5t-59.5 -126.5l-325 -1053h-158zM548 150q73 1 124 16t82 43.5t47 62t26 80.5 l32 158q7 35 7 65q0 44 -17 75t-46.5 45.5t-58 20.5t-60.5 6h-17z" />
<glyph unicode="&#x40a;" d="M-35 0l296 1400h152l-111 -528h245l112 528h153l-112 -528q151 -4 233.5 -86.5t82.5 -212.5q0 -34 -11 -93l-32 -158q-33 -159 -139 -240.5t-299 -81.5h-171l152 722h-246l-152 -722h-153zM548 150q73 1 124 16t82 43.5t47 62t26 80.5l32 158q7 32 7 63q0 149 -179 149 h-18z" />
<glyph unicode="&#x40b;" d="M236 0l259 1250h-256l31 150h777l-32 -150h-367l-73 -352q91 81 180 81h20q64 0 111 -14t71 -34t38 -49.5t17 -51.5t3 -50q0 -33 -9 -76l-146 -704h-152l152 734q5 28 5 44q0 51 -90 51h-20q-24 -2 -61.5 -29.5t-79.5 -77.5t-81.5 -135t-60.5 -185l-84 -402h-152z" />
<glyph unicode="&#x40c;" d="M27 0l292 1400h153l-138 -663l608 663h204l-560 -610l270 -790h-159l-227 664l-196 -214l-94 -450h-153zM485 1525l315 271l127 -148l-315 -271z" />
<glyph unicode="&#x40d;" d="M29 0l291 1400h152l-210 -1011l710 1011h144l-292 -1400h-152l210 1010l-710 -1010h-143zM627 1665l156 115l200 -272l-156 -115z" />
<glyph unicode="&#x40e;" d="M94 3l52 140l31 -11q20 -7 42 -7h32q56 1 97.5 25.5t76.5 97.5l101 209l-218 943h153l169 -727l351 727h168l-590 -1220q-98 -203 -308 -205h-32q-55 0 -92 15zM489 1613l128 80q49 -77 142 -77q109 0 206 92l104 -108q-141 -134 -310 -134q-86 0 -156.5 39t-113.5 108z " />
<glyph unicode="&#x40f;" d="M29 0l291 1400h152l-259 -1250h492l260 1250h152l-290 -1400h-324l-81 -384h-152l80 384h-321z" />
<glyph unicode="&#x410;" d="M0 0l658 1425h122l70 -1425h-150l-12 249h-408l-115 -249h-165zM349 399h331l-32 647z" />
<glyph unicode="&#x411;" d="M23 -25l295 1425h723l-31 -150h-570l-80 -388h240q154 0 243 -81.5t89 -218.5q0 -46 -10 -92l-36 -173q-33 -159 -139 -240.5t-299 -81.5h-425zM207 125h241q77 0 130.5 14.5t85.5 43t49 62.5t27 82l36 173q6 28 6 62q0 150 -182 150h-271z" />
<glyph unicode="&#x412;" d="M29 0l289 1400h337q25 0 48.5 -1t60.5 -6t67 -14t63.5 -25.5t56 -39.5t37.5 -58.5t15 -79.5t-18 -127l-8 -39q-34 -157 -137 -227q93 -84 93 -222q0 -41 -11 -91l-30 -148q-67 -322 -438 -322h-425zM213 150h241q78 0 133.5 16t86.5 47t47 63t25 76l30 148q7 34 7 61 q0 26 -7 49.5t-25 48t-56.5 39t-94.5 14.5h-271zM360 862h182q101 0 161 20.5t87.5 57.5t40.5 100l8 39q14 68 14 93q0 47 -40 62.5t-158 15.5h-215z" />
<glyph unicode="&#x413;" d="M27 0l291 1400h826l-29 -151h-675l-260 -1249h-153z" />
<glyph unicode="&#x414;" d="M-59 -33l38 184h126l330 842q25 65 82.5 144.5t149.5 156t186 106.5h240l-258 -1249h104l-41 -194l-64 -119h-113l34 162h-654l-35 -162h-107zM266 151h416l227 1099h-31q-84 -31 -178 -131t-125 -180z" />
<glyph unicode="&#x415;" d="M29 0l289 1400h830l-31 -150h-677l-80 -388h567l-31 -150h-567l-116 -561h675l-31 -151h-828z" />
<glyph unicode="&#x416;" d="M-60 0l393 716l-86 684h151l92 -727l141 677h152l-135 -654l382 704h171l-385 -709l86 -691h-151l-58 465l-151 -279l-39 -186h-153l46 221l-31 242l-254 -463h-171z" />
<glyph unicode="&#x417;" d="M64 244q0 48 14 110l146 -34q-10 -50 -10 -74q0 -45 33 -73.5t73 -38t84 -9.5h44q252 0 310 289l5 20q11 55 11 103q0 35 -7.5 66.5t-24.5 62.5t-52.5 49.5t-84.5 18.5h-214l29 150l168 2q87 1 161.5 47.5t86.5 103.5l9 42q12 54 12 89q0 107 -140 107h-44 q-77 0 -149.5 -33t-111.5 -93l-126 82q62 95 168.5 144.5t218.5 49.5h44q138 0 214 -73.5t76 -184.5q0 -43 -16 -120l-9 -40q-12 -59 -53.5 -112.5t-104.5 -91.5q100 -97 100 -266q0 -65 -15 -137l-5 -20q-40 -194 -157.5 -299.5t-298.5 -105.5h-44q-152 0 -246 77.5 t-94 191.5z" />
<glyph unicode="&#x418;" d="M29 0l291 1400h152l-210 -1011l710 1011h144l-292 -1400h-152l210 1010l-710 -1010h-143z" />
<glyph unicode="&#x419;" d="M29 0l291 1400h152l-210 -1011l710 1011h144l-292 -1400h-152l210 1010l-710 -1010h-143zM486 1614l128 80q49 -77 142 -77q109 0 206 92l104 -108q-141 -134 -310 -134q-86 0 -156.5 39t-113.5 108z" />
<glyph unicode="&#x41a;" d="M27 0l292 1400h153l-138 -663l608 663h204l-560 -610l270 -790h-159l-227 664l-196 -214l-94 -450h-153z" />
<glyph unicode="&#x41b;" d="M-20 0l444 996q23 51 61.5 107.5t92 115t126 107.5t149.5 74h263l-291 -1400h-153l260 1250h-55q-87 -31 -179 -123t-136 -191l-418 -936h-164z" />
<glyph unicode="&#x41c;" d="M-68 0l409 1400h153l60 -771l380 771h160l-177 -1400h-151l122 968l-374 -758h-78l-60 776l-288 -986h-156z" />
<glyph unicode="&#x41d;" d="M27 0l291 1396h153l-122 -589h491l123 589h153l-291 -1396h-153l137 657h-491l-138 -657h-153z" />
<glyph unicode="&#x41e;" d="M123 373q0 147 38 325l21 97q23 101 49 183t70 168.5t97.5 145t133 96t175.5 37.5q43 0 81.5 -8t83.5 -35t76.5 -70t53 -121t21.5 -181q0 -117 -27 -244l-29 -137q-13 -59 -28.5 -115t-41 -123t-55.5 -124.5t-72 -112.5t-90 -93.5t-110.5 -62t-131.5 -23.5 q-43 0 -83.5 9.5t-84 36.5t-75 69.5t-52 115.5t-20.5 167zM273 373q0 -62 10.5 -108.5t26 -72.5t38.5 -42t44 -20.5t46 -4.5q66 0 124 37.5t98 93t74 131.5t53 140.5t34 133.5l29 135q23 107 23 214q0 131 -36 198t-130 67q-49 0 -90 -13t-84.5 -47.5t-79 -90.5t-68 -147.5 t-57.5 -213.5l-19 -95q-36 -188 -36 -295z" />
<glyph unicode="&#x41f;" d="M27 0l291 1400h798l-292 -1400h-152l260 1250h-492l-261 -1250h-152z" />
<glyph unicode="&#x420;" d="M27 0l291 1400h394q122 0 191 -20q157 -44 157 -204q0 -47 -17 -128l-19 -91q-33 -160 -141 -237.5t-296 -77.5h-273l-134 -642h-153zM345 792h242q77 0 131 14.5t85.5 42.5t48 60t26.5 78l19 91q13 66 13 100q0 30 -10.5 40t-36.5 18q-52 14 -151 14h-272z" />
<glyph unicode="&#x421;" d="M123 372q0 142 49 375q16 75 32 136.5t41.5 133.5t54.5 128.5t70.5 110.5t89 89.5t111 57.5t136.5 22q41 0 79.5 -8.5t79.5 -32t72 -60.5t54 -100t28 -145l-150 -10q-4 66 -20 109.5t-41.5 63t-48.5 26.5t-53 7q-79 0 -141.5 -39t-108.5 -115.5t-78.5 -173.5t-60.5 -230 q-45 -207 -45 -345q0 -62 10.5 -108.5t26 -72.5t38.5 -41.5t44 -20t46 -4.5q164 0 278 224l134 -68q-157 -306 -412 -306q-43 0 -83.5 9.5t-84 36.5t-75 69.5t-52 115t-20.5 166.5z" />
<glyph unicode="&#x422;" d="M235 1250l31 150h904l-31 -150h-376l-260 -1250h-154l261 1250h-375z" />
<glyph unicode="&#x423;" d="M94 3l52 140l31 -11q20 -7 42 -7h32q56 1 97.5 25.5t76.5 97.5l101 209l-218 943h153l169 -727l351 727h168l-590 -1220q-98 -203 -308 -205h-32q-55 0 -92 15z" />
<glyph unicode="&#x424;" d="M80 487q0 94 24 211l20 96q19 90 48.5 165t63.5 128t76 94.5t81 66.5t83 42.5t78.5 25t71.5 11.5l21 98h152l-21 -102q144 -25 219.5 -128t75.5 -262q0 -75 -19 -167l-29 -137q-23 -110 -66 -203t-105 -166.5t-147.5 -119.5t-186.5 -57l-22 -107h-153l23 112 q-148 26 -218 133.5t-70 265.5zM230 487q0 -120 42.5 -179.5t125.5 -72.5l195 936q-249 -53 -323 -407l-20 -96q-20 -94 -20 -181zM553 241q68 17 124.5 58t95 99.5t64.5 123.5t42 139l29 135q15 73 15 137q0 215 -175 243z" />
<glyph unicode="&#x425;" d="M5 0l486 713l-181 687h155l138 -523l356 523h181l-487 -714l181 -686h-155l-137 521l-356 -521h-181z" />
<glyph unicode="&#x426;" d="M29 0l290 1400h152l-258 -1250h411l259 1250h152l-258 -1250h153l-25 -120l-220 -267l-116 96l117 141h-657z" />
<glyph unicode="&#x427;" d="M190 738q0 45 9 91l120 571h152l-116 -562q-15 -75 -15 -100q0 -151 183 -151h271l170 813h152l-291 -1400h-153l91 437h-240q-158 0 -245.5 84t-87.5 217z" />
<glyph unicode="&#x428;" d="M-29 0l289 1400h153l-258 -1250h228l214 1034h152l-213 -1034h227l258 1250h153l-289 -1400h-914z" />
<glyph unicode="&#x429;" d="M-29 0l287 1400h152l-255 -1250h199l209 1034h154l-210 -1034h198l255 1250h152l-254 -1250h109l-26 -127l-222 -261l-114 98l120 140h-754z" />
<glyph unicode="&#x42a;" d="M162 959l93 441h390l-120 -578h137q117 0 190 -84.5t73 -214.5q0 -46 -10 -93l-23 -108q-34 -158 -135 -240t-234 -82h-321l259 1250h-97l-159 -291h-43zM386 150h137q26 0 51 5.5t61.5 23.5t66.5 62.5t44 110.5l23 108q6 29 6 63q0 68 -30 108.5t-83 40.5h-168z" />
<glyph unicode="&#x42b;" d="M-6 0l294 1400h152l-110 -528q150 -4 233 -87t83 -212q0 -34 -11 -93l-32 -158q-33 -159 -139 -240.5t-299 -81.5h-171zM178 150q73 1 124 16t82 44t47 62t26 80l32 158q7 32 7 63q0 149 -182 149h-16zM714 0l289 1400h152l-289 -1400h-152z" />
<glyph unicode="&#x42c;" d="M29 0l291 1400h152l-119 -578h239q155 0 244.5 -81t89.5 -217q0 -43 -11 -95l-23 -107q-34 -160 -139.5 -241t-298.5 -81h-425zM213 150h241q77 0 130.5 14.5t85.5 43.5t49 62.5t27 81.5l23 109q7 34 7 63q0 148 -184 148h-272z" />
<glyph unicode="&#x42d;" d="M125 308l150 14q6 -63 22.5 -104.5t41.5 -60.5t47.5 -25.5t51.5 -6.5q60 0 114.5 30t105 94t93.5 173.5t73 258.5h-297v150l328 -1q17 85 17 166q0 141 -35.5 210t-129.5 69q-171 0 -286 -234l-134 66q156 318 420 318q315 0 315 -429q0 -98 -17 -183l-37 -177 q-26 -129 -64.5 -233t-78 -171.5t-87 -117.5t-87.5 -75.5t-84.5 -41t-72 -19t-56.5 -3.5q-41 0 -78.5 8.5t-78 31t-71.5 58.5t-54.5 96.5t-30.5 138.5z" />
<glyph unicode="&#x42e;" d="M-31 0l293 1400h152l-130 -625h190l29 137q55 248 159.5 381t212.5 133q57 0 99 -34t65.5 -91.5t34.5 -122.5t11 -136q0 -92 -15 -160l-78 -370q-28 -132 -73 -237t-96.5 -169t-105.5 -97.5t-106 -33.5q-89 0 -146 95t-57 272q0 116 19 204l16 79h-190l-131 -625h-153z M558 342q0 -217 63 -217q34 0 79.5 63t85 160.5t60.5 195.5l78 368q11 47 11 143q0 91 -13.5 155.5t-41.5 64.5q-82 0 -136.5 -100.5t-94.5 -292.5l-76 -368q-15 -71 -15 -172z" />
<glyph unicode="&#x42f;" d="M-32 0l474 656q-107 25 -162.5 94t-55.5 164q0 38 9 75l19 89q37 174 143 248t297 74h424l-292 -1400h-152l133 642h-188l-464 -642h-185zM374 914q0 -122 192 -122h270l96 458h-240q-148 0 -209.5 -45.5t-84.5 -156.5l-19 -91q-5 -25 -5 -43z" />
<glyph unicode="&#x430;" d="M108 331q0 53 12 112l35 169q41 197 161.5 317t301.5 120h21q152 0 237 -71l9 46h154l-147 -702q-7 -34 -7 -64q0 -89 66 -120l-31 -152q-68 20 -103.5 57.5t-46.5 71.5q-127 -140 -322 -140h-21q-143 0 -231 100t-88 256zM258 333q0 -91 44.5 -149.5t124.5 -58.5h21 q129 0 207.5 84t104.5 215l40 188q18 94 18 139q0 73 -40 110.5t-139 37.5h-21q-68 0 -124 -26t-93.5 -72t-61.5 -100.5t-38 -118.5l-35 -171q-8 -43 -8 -78z" />
<glyph unicode="&#x431;" d="M108 330q0 55 12 112l35 170q39 185 148 303t273 132l-283 256l20 97h728l-31 -150h-434l287 -249q104 -94 104 -247q0 -71 -21 -172l-35 -170q-41 -198 -161.5 -317.5t-301.5 -119.5h-21q-143 0 -231 100t-88 255zM258 330q0 -94 45.5 -149.5t123.5 -55.5h21 q132 0 210 89.5t107 227.5l35 170q17 82 17 142q0 74 -36 109.5t-142 35.5h-21q-69 0 -124.5 -26t-93 -72t-62 -100t-37.5 -119l-35 -170q-8 -39 -8 -82z" />
<glyph unicode="&#x432;" d="M88 262q0 34 7 65l184 873q7 34 17.5 61t33.5 59t56 53.5t87.5 36t124.5 14.5h37q83 0 142 -21t87 -56.5t39.5 -69.5t11.5 -72q0 -22 -4 -46l-24 -111q-19 -88 -99 -209t-183 -216q74 -4 131 -22.5t91 -43.5t55 -59t28.5 -65t7.5 -64q0 -47 -14.5 -95.5t-48.5 -98 t-83 -88t-126 -63t-170 -24.5h-45q-168 0 -255.5 73.5t-87.5 188.5zM240 270q0 -55 48.5 -87.5t142.5 -32.5h45q68 0 121.5 16.5t84.5 41t51.5 55.5t27.5 57t7 49q0 13 -7 27.5t-25.5 33.5t-60.5 31.5t-102 12.5h-293l-37 -177q-3 -13 -3 -27zM312 624h14q60 0 153.5 81 t169.5 190t92 185l22 105q2 13 2 20q0 69 -130 69h-37q-91 0 -127 -28t-46 -78z" />
<glyph unicode="&#x433;" d="M46 228q0 23 4 42l8 45q14 71 62.5 125t122.5 80l472 176q36 14 64.5 54t28.5 79q0 14 -6 24.5t-25 21.5t-62.5 17t-110.5 7h-21q-71 0 -145.5 -37t-115.5 -95l-122 86q62 87 167.5 141.5t215.5 54.5h21q354 -4 354 -220q0 -93 -56 -169t-137 -106l-470 -174 q-76 -28 -89 -93l-10 -47q-2 -8 -2 -17q0 -29 21 -49.5t54.5 -30.5t63.5 -14t59 -4h56q90 0 186 76t112 151l146 -30q-27 -127 -164 -237t-280 -110h-56q-167 0 -256.5 73.5t-89.5 179.5z" />
<glyph unicode="&#x434;" d="M107 326q0 58 13 117l35 169q41 197 161.5 317t301.5 120h21q154 0 237 -71q12 58 12 99q0 29 -7 55t-25 53t-55 44.5t-91 20.5h-18q-129 0 -174.5 -10t-123.5 -52l-70 132q100 54 164 67t204 13h22q82 -5 146 -34t102 -75t57 -100t19 -114q0 -35 -11 -109l-116 -556 q-41 -198 -161.5 -317.5t-301.5 -119.5h-21q-142 0 -231 100t-89 251zM257 326q0 -90 46 -145.5t124 -55.5h21q132 0 210 89.5t107 227.5l35 170q18 90 18 140q0 83 -45.5 115t-133.5 32h-21q-69 0 -124.5 -26t-93 -72t-62 -100t-37.5 -119l-35 -171q-9 -40 -9 -85z" />
<glyph unicode="&#x435;" d="M84 218q0 55 16 133l81 383q66 315 437 315h21q161 0 253 -61.5t92 -190.5q0 -40 -11 -93l-47 -218h-644l-34 -163q-13 -62 -13 -95q0 -56 41 -79.5t151 -23.5h21q110 0 171.5 26t91.5 85l134 -68q-53 -103 -152.5 -148t-244.5 -45h-21q-183 0 -263 59.5t-80 183.5z M313 636h491l21 98q8 35 8 61q0 53 -43 78.5t-151 25.5h-21q-77 0 -131.5 -14.5t-86 -43t-47.5 -60.5t-26 -77z" />
<glyph unicode="&#x436;" d="M-29 0l315 485l-150 544l144 40l167 -602l116 557h152l-108 -526l408 594l124 -88l-379 -547l108 -457h-153l-69 291l-118 -172l-26 -119h-152l30 146l-40 146l-190 -292h-179z" />
<glyph unicode="&#x437;" d="M81 222l150 6q2 -39 51 -69.5t145 -33.5h21q67 0 125 24.5t95 62t58 80t21 80.5q0 54 -53.5 83.5t-140.5 29.5h-125v150h126q97 0 168 70t71 129q0 29 -42.5 46.5t-111.5 17.5h-44q-77 0 -149.5 -33t-111.5 -93l-126 82q62 95 168.5 144.5t218.5 49.5h44q111 0 187 -39 q115 -58 115 -177q0 -82 -44.5 -149t-103.5 -113q104 -74 104 -198q0 -27 -5 -52l-4 -21q-25 -124 -148 -224t-292 -100h-21q-93 3 -162.5 27t-107.5 61.5t-56 77t-20 81.5z" />
<glyph unicode="&#x438;" d="M83 209q0 68 26 187l132 628h152l-138 -660q-22 -105 -22 -155q0 -54 33.5 -69t137.5 -15h21q62 0 139.5 58t133.5 134.5t68 134.5l120 572h152l-214 -1024h-152l19 94q-136 -119 -266 -119h-21q-36 0 -63.5 2t-69 8.5t-71 22t-58.5 40t-44 66t-15 95.5z" />
<glyph unicode="&#x439;" d="M83 209q0 68 26 187l132 628h152l-138 -660q-22 -105 -22 -155q0 -54 33.5 -69t137.5 -15h21q62 0 139.5 58t133.5 134.5t68 134.5l120 572h152l-214 -1024h-152l19 94q-136 -119 -266 -119h-21q-36 0 -63.5 2t-69 8.5t-71 22t-58.5 40t-44 66t-15 95.5zM388 1316l128 80 q49 -77 142 -77q109 0 206 92l104 -108q-141 -134 -310 -134q-86 0 -156.5 39t-113.5 108z" />
<glyph unicode="&#x43a;" d="M27 0l213 1024h153l-120 -579l16 22q242 327 525 497l135 81l78 -128l-129 -77q-152 -91 -308 -258l7 -88q8 -97 52 -194t89 -149l130 -151h-198l-44 51q-53 61 -104 164t-69 219q-17 -21 -44 -57l-210 -285l-19 -92h-153z" />
<glyph unicode="&#x43b;" d="M-19 0l323 637q57 112 189.5 225.5t280.5 161.5h264l-213 -1024h-153l182 873h-56q-97 -34 -206.5 -124t-153.5 -178l-289 -571h-168z" />
<glyph unicode="&#x43c;" d="M-68 0l309 1024h153l100 -677l382 677h161l-121 -1024h-150l77 659l-329 -584h-131l-89 603l-205 -678h-157z" />
<glyph unicode="&#x43d;" d="M28 0l213 1024h153l-100 -479h492l100 479h153l-214 -1024h-152l82 395h-492l-83 -395h-152z" />
<glyph unicode="&#x43e;" d="M107 326q0 58 13 117l35 169q41 197 161.5 317t301.5 120h21q77 0 136.5 -18.5t95 -48t58 -70t31 -79t8.5 -81.5q0 -69 -22 -170l-35 -170q-41 -198 -161.5 -317.5t-301.5 -119.5h-21q-142 0 -231 100t-89 251zM257 326q0 -90 46 -145.5t124 -55.5h21q132 0 210 89.5 t107 227.5l35 170q18 90 18 140q0 83 -45.5 115t-133.5 32h-21q-69 0 -124.5 -26t-93 -72t-62 -100t-37.5 -119l-35 -171q-9 -40 -9 -85z" />
<glyph unicode="&#x43f;" d="M27 0l214 1024h153l-15 -72q119 97 239 97h21q344 0 344 -251q0 -41 -11 -94l-147 -704h-153l154 734q7 32 7 60q0 61 -44 83t-150 22h-21q-94 0 -195.5 -111t-121.5 -206l-121 -582h-153z" />
<glyph unicode="&#x440;" d="M-53 -384l294 1408h153l-8 -40q101 65 232 65h21q327 0 327 -297q0 -78 -20 -170l-35 -170q-41 -198 -161.5 -317.5t-301.5 -119.5h-21q-142 0 -231 100l-96 -459h-153zM257 329q0 -91 45 -147.5t125 -56.5h21q69 0 124.5 26t93 71.5t61.5 100t38 119.5l35 170 q18 94 18 139q0 73 -40 110.5t-139 37.5h-21q-129 0 -207.5 -86t-105.5 -217l-39 -185q-9 -42 -9 -82z" />
<glyph unicode="&#x441;" d="M107 326q0 58 13 117l35 169q41 197 161.5 317t301.5 120h21q76 0 133.5 -11.5t92.5 -30t59 -47t35.5 -55.5t19.5 -64l-148 -22q-3 15 -5 20.5t-13.5 19.5t-30 20.5t-55.5 12.5t-88 6h-21q-69 0 -124.5 -26t-93 -72t-62 -100t-37.5 -118l-35 -171q-9 -40 -9 -85 q0 -91 46.5 -146t123.5 -55h21q105 0 165.5 23.5t92.5 77.5l128 -76q-57 -94 -152.5 -134.5t-233.5 -40.5h-21q-142 0 -231 100t-89 251z" />
<glyph unicode="&#x442;" d="M-18 0l220 1050h153l-6 -26q51 25 112 25h11q114 0 168 -78q91 78 189 78h12q204 0 204 -173q0 -38 -9 -82l-165 -794h-153l172 824q7 33 7 45q0 19 -12 24.5t-44 5.5h-12q-54 0 -109 -56.5t-71 -131.5l-147 -711h-153l169 819q6 23 6 38q0 42 -52 42h-11 q-52 0 -105.5 -49t-67.5 -118l-154 -732h-152z" />
<glyph unicode="&#x443;" d="M-46 -146q0 22 4 49l148 -26q-1 -4 -1 -11q0 -33 28.5 -59t73.5 -26q53 0 106 44.5t79 99.5l87 186q-198 384 -231 913h151q28 -424 163 -737l345 737h166l-549 -1169q-19 -40 -62 -89t-114.5 -92t-140.5 -43q-102 0 -177.5 64t-75.5 159z" />
<glyph unicode="&#x444;" d="M52 355q0 47 7 82l17 90q16 79 50 154.5t88 144.5t135.5 111.5t178.5 42.5h26l14 69h153l-14 -69q91 -2 159 -60.5t99.5 -145.5t31.5 -188q0 -45 -8 -88l-19 -90q-40 -189 -157.5 -311t-273.5 -122h-42l-75 -359h-153l75 359h-21q-58 0 -104.5 20.5t-75 56t-48 75t-28 86 t-12 79t-3.5 63.5zM202 355q0 -96 33 -163t88 -67h52l147 705q-64 -1 -117.5 -33.5t-89 -83.5t-58 -105t-33.5 -109l-17 -90q-5 -33 -5 -54zM528 125h11q93 0 175 82.5t110 230.5l17 90q6 28 6 58q0 20 -2.5 46t-12 62.5t-25 65.5t-43.5 49.5t-65 20.5h-23z" />
<glyph unicode="&#x445;" d="M-6 0l199 181q102 93 276 305l-222 538h162l167 -404q126 162 222 308l63 96h180l-117 -178q-128 -194 -282 -385l190 -461h-163l-136 330q-5 -6 -33 -38.5t-36 -41.5t-31.5 -36t-35.5 -39.5t-31.5 -33.5t-35.5 -37t-33 -31l-80 -73h-223z" />
<glyph unicode="&#x446;" d="M84 219q0 54 17 133l141 672h152l-147 -702q-13 -60 -13 -103q0 -23 4 -36.5t19 -28.5t51.5 -22t95.5 -7h21q64 0 142.5 62t134 140.5t67.5 134.5l118 562h152l-193 -928q34 -44 34 -128q0 -171 -244 -266l-54 140q148 57 148 127q0 39 -45 87l8 40q-140 -121 -268 -121 h-21q-63 0 -114 9.5t-83.5 24.5t-56.5 37.5t-36.5 43t-19.5 47t-8.5 44t-1.5 38.5z" />
<glyph unicode="&#x447;" d="M166 607q0 56 17 137l58 280h153l-65 -310q-14 -67 -14 -105q0 -64 37.5 -85.5t129.5 -21.5h21q61 0 140 63t137 147t71 147l35 165h153l-214 -1024h-152l99 478q-140 -126 -269 -126h-21q-93 0 -157.5 20.5t-98 58t-47 80t-13.5 96.5z" />
<glyph unicode="&#x448;" d="M21 151q0 34 10 79l164 794h152l-163 -790q-11 -51 -11 -80q0 -18 10 -23.5t42 -5.5h11q46 0 104.5 60t81.5 168l142 671h152l-174 -825q-6 -27 -6 -42q0 -18 13.5 -25t44.5 -7h11q54 0 110.5 69t71.5 141l145 689h152l-213 -1024h-139l5 19l-18 -13q-41 -31 -114 -31 h-11q-132 0 -182 76q-86 -76 -176 -76h-11q-107 0 -155.5 47.5t-48.5 128.5z" />
<glyph unicode="&#x449;" d="M21 151q0 34 10 79l164 794h152l-163 -792q-11 -55 -11 -78q0 -18 10 -23.5t42 -5.5q54 0 124 101.5t92 209.5l122 588h152l-170 -824q-5 -28 -5 -41q0 -20 11.5 -27t42.5 -7h11q58 0 114.5 74t72.5 153l140 672h152l-192 -931q32 -56 32 -123q0 -91 -64 -163.5 t-184 -106.5l-42 144q76 22 108 56t32 70q0 30 -19 60q-75 -55 -150 -55h-11q-133 0 -181 78q-83 -78 -188 -78q-107 0 -155.5 47.5t-48.5 128.5z" />
<glyph unicode="&#x44a;" d="M82 572l88 426h392l-75 -362h66q95 0 165.5 -26t107.5 -68t54 -85.5t17 -87.5q0 -28 -4 -46l-16 -79q-15 -68 -59.5 -118t-107.5 -76t-126.5 -38t-130.5 -12h-252l177 848h-97l-145 -276h-54zM385 149h68q118 1 193 33.5t85 89.5l12 69q4 20 4 28q0 45 -50.5 81 t-143.5 36h-97z" />
<glyph unicode="&#x44b;" d="M-29 0l213 1024h152l-80 -388h31q139 0 230.5 -72t91.5 -188q0 -28 -5 -53l-16 -79q-15 -68 -55.5 -117.5t-98 -76t-118 -38.5t-128.5 -12h-217zM155 150h33q231 0 254 124l14 77q3 15 3 25q0 38 -28 64t-65 36t-79 10h-62zM728 0l212 1024h152l-212 -1024h-152z" />
<glyph unicode="&#x44c;" d="M29 0l217 1049h153l-85 -413h239q160 0 252 -83t92 -188q0 -23 -4 -42l-16 -79q-15 -68 -59.5 -118.5t-107 -76.5t-126 -37.5t-130.5 -11.5h-425zM213 150h241q117 0 191.5 33.5t85.5 90.5l11 55q4 24 4 38q0 55 -61 87t-132 32h-270z" />
<glyph unicode="&#x44d;" d="M71 175l148 26q5 -25 18 -39t55 -24.5t118 -12.5h21q100 0 191 85t123 227h-379v150h411l6 25q18 87 18 138q0 77 -41 112.5t-139 35.5h-20q-106 0 -166.5 -24t-91.5 -80l-132 72q54 98 151.5 140t238.5 42h20q80 0 141.5 -20.5t96.5 -51t56.5 -72t28.5 -76.5t7 -71 q0 -67 -22 -175l-36 -170q-40 -189 -170 -313t-292 -124h-21q-66 0 -115 7t-98.5 27t-81.5 61.5t-44 104.5z" />
<glyph unicode="&#x44e;" d="M-18 0l215 1024h152l-91 -437h144l6 25q45 214 144 325.5t215 111.5h21q236 0 236 -232q0 -72 -33 -235l-35 -170q-18 -87 -48 -162t-73.5 -138.5t-104.5 -100t-133 -36.5h-21q-17 0 -38 3t-57 19t-63 42.5t-48 79.5t-21 124q0 79 23 194h-146l-92 -437h-152zM499 243 q0 -62 22.5 -90t54.5 -28h21q65 0 123.5 84t89.5 233l35 170q29 139 29 205q0 51 -16 66.5t-70 15.5h-21q-25 0 -53 -17.5t-58 -53t-57.5 -99.5t-44.5 -147l-35 -170q-20 -98 -20 -169z" />
<glyph unicode="&#x44f;" d="M31 71l363 363q-97 36 -155.5 116t-58.5 165q0 24 5 46l6 22q11 55 43 98t74 69.5t95.5 43.5t104.5 23.5t105 6.5h425l-213 -1024h-152l85 412h-174l-447 -447zM330 715q0 -48 50.5 -100.5t137.5 -52.5h271l65 312h-241q-119 0 -191.5 -34.5t-84.5 -90.5l-6 -24 q-1 -4 -1 -10z" />
<glyph unicode="&#x450;" d="M84 218q0 55 16 133l81 383q66 315 437 315h21q161 0 253 -61.5t92 -190.5q0 -40 -11 -93l-47 -218h-644l-34 -163q-13 -62 -13 -95q0 -56 41 -79.5t151 -23.5h21q110 0 171.5 26t91.5 85l134 -68q-53 -103 -152.5 -148t-244.5 -45h-21q-183 0 -263 59.5t-80 183.5z M313 636h491l21 98q8 35 8 61q0 53 -43 78.5t-151 25.5h-21q-77 0 -131.5 -14.5t-86 -43t-47.5 -60.5t-26 -77zM521 1459l156 115l200 -272l-156 -115z" />
<glyph unicode="&#x451;" d="M84 218q0 55 16 133l81 383q66 315 437 315h21q161 0 253 -61.5t92 -190.5q0 -40 -11 -93l-47 -218h-644l-34 -163q-13 -62 -13 -95q0 -56 41 -79.5t151 -23.5h21q110 0 171.5 26t91.5 85l134 -68q-53 -103 -152.5 -148t-244.5 -45h-21q-183 0 -263 59.5t-80 183.5z M313 636h491l21 98q8 35 8 61q0 53 -43 78.5t-151 25.5h-21q-77 0 -131.5 -14.5t-86 -43t-47.5 -60.5t-26 -77zM402 1258q0 56 37.5 91t87.5 35q53 0 89.5 -37.5t36.5 -88.5q0 -54 -37 -93t-88 -39t-88.5 39t-37.5 93zM839 1258q0 53 37.5 89.5t87.5 36.5q49 0 86.5 -35 t37.5 -91t-37.5 -94t-86.5 -38q-50 0 -87.5 39t-37.5 93z" />
<glyph unicode="&#x452;" d="M85 0l232 1110h-158l32 150h157l35 166h153l-35 -166h352l-31 -150h-352l-59 -282q120 102 241 102h21q84 0 140.5 -15t88 -46t44.5 -71t13 -97q0 -59 -22 -163l-121 -581q-29 -134 -131.5 -230t-244.5 -96h-57q-43 0 -81 9.5t-61.5 22.5t-41 28.5t-24.5 24.5t-9 13 l124 86q3 -5 10 -11.5t30 -14.5t53 -8h57q83 0 147.5 59t82.5 147l121 581q18 88 18 133q0 50 -23.5 64.5t-112.5 14.5h-21q-60 0 -131 -53t-121.5 -125.5t-63.5 -132.5l-98 -469h-153z" />
<glyph unicode="&#x453;" d="M46 228q0 23 4 42l8 45q14 71 62.5 125t122.5 80l472 176q36 14 64.5 54t28.5 79q0 14 -6 24.5t-25 21.5t-62.5 17t-110.5 7h-21q-71 0 -145.5 -37t-115.5 -95l-122 86q62 87 167.5 141.5t215.5 54.5h21q354 -4 354 -220q0 -93 -56 -169t-137 -106l-470 -174 q-76 -28 -89 -93l-10 -47q-2 -8 -2 -17q0 -29 21 -49.5t54.5 -30.5t63.5 -14t59 -4h56q90 0 186 76t112 151l146 -30q-27 -127 -164 -237t-280 -110h-56q-167 0 -256.5 73.5t-89.5 179.5zM481 1315l315 271l127 -148l-315 -271z" />
<glyph unicode="&#x454;" d="M107 326q0 58 13 117l35 169q41 197 161.5 317t301.5 120h21q265 0 318 -200l-146 -38q-11 41 -47.5 64.5t-124.5 23.5h-21q-68 0 -123 -25.5t-92.5 -70.5t-61.5 -98.5t-38 -117.5h395l-33 -150h-393l-6 -26q-9 -40 -9 -85q0 -91 46.5 -146t123.5 -55h21q86 0 143 25.5 t96 80.5l122 -86q-120 -170 -361 -170h-21q-142 0 -231 100t-89 251z" />
<glyph unicode="&#x455;" d="M55 263q0 37 10 89l148 -30q-8 -32 -8 -58q0 -66 52.5 -102.5t134.5 -36.5h56q104 0 186 40t95 104l6 31q3 15 3 23q0 26 -29 51t-73 42l-280 108q-73 28 -119.5 91t-46.5 142q0 54 23 103.5t71 93t134 69.5t200 26h21q129 0 229.5 -76t109.5 -207q0 -36 -5 -62l-148 30 q3 12 3 23q0 61 -56.5 101.5t-132.5 40.5h-21q-143 0 -210 -41t-67 -97q0 -31 19.5 -58.5t49.5 -38.5l280 -108q101 -39 149.5 -103.5t48.5 -133.5q0 -17 -3 -32l-8 -46q-12 -70 -58 -124t-110.5 -83.5t-130.5 -44t-130 -14.5h-56q-141 0 -239 85t-98 203z" />
<glyph unicode="&#x456;" d="M102 0l32 150h249l148 724h-246l31 150h399l-179 -874h243l-32 -150h-645zM592 1317q0 42 29.5 72t71.5 30t72.5 -30t30.5 -72t-30.5 -72t-72.5 -30t-71.5 30t-29.5 72z" />
<glyph unicode="&#x457;" d="M102 0l32 150h249l148 724h-246l31 150h399l-179 -874h243l-32 -150h-645zM305 1256q0 56 37.5 91t87.5 35q53 0 89.5 -37.5t36.5 -88.5q0 -54 -37 -93t-88 -39t-88.5 39t-37.5 93zM742 1256q0 53 37.5 89.5t87.5 36.5q49 0 86.5 -35t37.5 -91t-37.5 -94t-86.5 -38 q-50 0 -87.5 39t-37.5 93z" />
<glyph unicode="&#x458;" d="M130 -149l150 6q4 -32 26.5 -50.5t40.5 -22t36 -3.5q150 0 178 125l200 968h-377l32 150h529l-238 -1150q-24 -115 -111.5 -179t-212.5 -64q-23 0 -48 3.5t-60.5 17.5t-63.5 36t-51 64.5t-30 98.5zM763 1317q0 42 29.5 72t71.5 30t72.5 -30t30.5 -72t-30.5 -72t-72.5 -30 t-71.5 30t-29.5 72z" />
<glyph unicode="&#x459;" d="M-35 0l175 635q47 170 120.5 260t193.5 129h264l-80 -388h65q97 0 169.5 -66t72.5 -179q0 -35 -7 -69l-15 -78q-12 -63 -43.5 -111t-75.5 -76.5t-94.5 -42.5t-105.5 -14h-251l181 873h-56q-75 -27 -118.5 -95t-75.5 -183l-164 -595h-155zM537 150h67q149 0 173 124l15 78 q4 17 4 37q0 45 -24 71t-69 26h-96z" />
<glyph unicode="&#x45a;" d="M-17 0l211 1024h152l-79 -388h217l80 388h152l-79 -388h66q97 0 169.5 -66t72.5 -179q0 -35 -7 -69l-15 -78q-12 -63 -43.5 -111t-75.5 -76.5t-94.5 -42.5t-105.5 -14h-251l100 486h-217l-100 -486h-153zM537 150h67q149 0 173 124l15 78q4 17 4 37q0 45 -24 71t-69 26 h-97z" />
<glyph unicode="&#x45b;" d="M27 0l292 1400h153l-93 -448q119 97 239 97h21q343 0 343 -257q0 -40 -9 -88l-148 -704h-153l153 734q3 18 3 35q0 61 -47.5 95.5t-141.5 34.5h-21q-63 0 -134 -55t-120 -127t-61 -130l-123 -587h-153zM189 1178v150h453v-150h-453z" />
<glyph unicode="&#x45c;" d="M27 0l213 1024h153l-120 -579l16 22q242 327 525 497l135 81l78 -128l-129 -77q-152 -91 -308 -258l7 -88q8 -97 52 -194t89 -149l130 -151h-198l-44 51q-53 61 -104 164t-69 219q-17 -21 -44 -57l-210 -285l-19 -92h-153zM496 1312l315 271l127 -148l-315 -271z" />
<glyph unicode="&#x45d;" d="M83 209q0 68 26 187l132 628h152l-138 -660q-22 -105 -22 -155q0 -54 33.5 -69t137.5 -15h21q62 0 139.5 58t133.5 134.5t68 134.5l120 572h152l-214 -1024h-152l19 94q-136 -119 -266 -119h-21q-36 0 -63.5 2t-69 8.5t-71 22t-58.5 40t-44 66t-15 95.5zM527 1433 l156 115l200 -272l-156 -115z" />
<glyph unicode="&#x45e;" d="M-46 -146q0 22 4 49l148 -26q-1 -4 -1 -11q0 -33 28.5 -59t73.5 -26q53 0 106 44.5t79 99.5l87 186q-198 384 -231 913h151q28 -424 163 -737l345 737h166l-549 -1169q-19 -40 -62 -89t-114.5 -92t-140.5 -43q-102 0 -177.5 64t-75.5 159zM408 1316l128 80 q49 -77 142 -77q109 0 206 92l104 -108q-141 -134 -310 -134q-86 0 -156.5 39t-113.5 108z" />
<glyph unicode="&#x45f;" d="M29 0l212 1024h153l-181 -873h492l180 873h153l-211 -1024h-323l-82 -387h-153l82 387h-322z" />
<glyph unicode="&#x2000;" horiz-adv-x="898" />
<glyph unicode="&#x2001;" horiz-adv-x="1796" />
<glyph unicode="&#x2002;" horiz-adv-x="898" />
<glyph unicode="&#x2003;" horiz-adv-x="1796" />
<glyph unicode="&#x2004;" horiz-adv-x="598" />
<glyph unicode="&#x2005;" horiz-adv-x="449" />
<glyph unicode="&#x2006;" horiz-adv-x="299" />
<glyph unicode="&#x2007;" horiz-adv-x="299" />
<glyph unicode="&#x2008;" horiz-adv-x="224" />
<glyph unicode="&#x2009;" horiz-adv-x="359" />
<glyph unicode="&#x200a;" horiz-adv-x="99" />
<glyph unicode="&#x2010;" d="M127 525v150h822v-150h-822z" />
<glyph unicode="&#x2011;" d="M127 525v150h822v-150h-822z" />
<glyph unicode="&#x2012;" d="M127 525v150h822v-150h-822z" />
<glyph unicode="&#x2013;" horiz-adv-x="1277" d="M127 525v150h1024v-150h-1024z" />
<glyph unicode="&#x2014;" horiz-adv-x="2301" d="M127 525v150h2048v-150h-2048z" />
<glyph unicode="&#x2018;" d="M548 1146q0 84 29.5 150.5t79 106.5t107.5 62t121 24h38l3 -57q-56 -8 -114 -42t-58 -83q0 -16 8.5 -34.5t23.5 -25.5q55 -26 55 -101q0 -59 -41.5 -102t-104.5 -43t-105 42t-42 103z" />
<glyph unicode="&#x2019;" d="M488 1078q56 8 114 42t58 83q0 16 -8.5 34.5t-23.5 25.5q-55 26 -55 101q0 59 41.5 102t104.5 43t105 -42t42 -103q0 -84 -29.5 -150.5t-79 -106.5t-107.5 -62t-121 -24h-38z" />
<glyph unicode="&#x201a;" d="M262 -83q56 8 114 42t58 83q0 16 -8.5 34.5t-23.5 25.5q-55 26 -55 101q0 59 41.5 102t104.5 43t105 -42t42 -103q0 -84 -29.5 -150.5t-79 -106.5t-107.5 -62t-121 -24h-38z" />
<glyph unicode="&#x201c;" d="M208 1146q0 84 29.5 150.5t79 106.5t107.5 62t121 24h38l3 -57q-56 -8 -114 -42t-58 -83q0 -16 8.5 -34.5t23.5 -25.5q55 -26 55 -101q0 -59 -41.5 -102t-104.5 -43t-105 42t-42 103zM658 1146q0 84 29.5 150.5t79 106.5t107.5 62t121 24h38l3 -57q-56 -8 -114 -42 t-58 -83q0 -16 8.5 -34.5t23.5 -25.5q55 -26 55 -101q0 -59 -41.5 -102t-104.5 -43t-105 42t-42 103z" />
<glyph unicode="&#x201d;" d="M305 1078q56 8 114 42t58 83q0 16 -8.5 34.5t-23.5 25.5q-55 26 -55 101q0 59 41.5 102t104.5 43t105 -42t42 -103q0 -84 -29.5 -150.5t-79 -106.5t-107.5 -62t-121 -24h-38zM735 1078q56 8 114 42t58 83q0 16 -8.5 34.5t-23.5 25.5q-55 26 -55 101q0 59 41.5 102 t104.5 43t105 -42t42 -103q0 -84 -29.5 -150.5t-79 -106.5t-107.5 -62t-121 -24h-38z" />
<glyph unicode="&#x201e;" d="M1 -93q56 8 114 42t58 83q0 16 -8.5 34.5t-23.5 25.5q-55 26 -55 101q0 59 41.5 102t104.5 43t105 -42t42 -103q0 -84 -29.5 -150.5t-79 -106.5t-107.5 -62t-121 -24h-38zM431 -93q56 8 114 42t58 83q0 16 -8.5 34.5t-23.5 25.5q-55 26 -55 101q0 59 41.5 102t104.5 43 t105 -42t42 -103q0 -84 -29.5 -150.5t-79 -106.5t-107.5 -62t-121 -24h-38z" />
<glyph unicode="&#x2022;" d="M341 669q0 87 63.5 154t149.5 67q85 0 149.5 -67t64.5 -154q0 -85 -64 -154.5t-150 -69.5q-89 0 -151 66.5t-62 157.5z" />
<glyph unicode="&#x2026;" d="M118 113q0 34 23.5 59.5t57.5 25.5t57.5 -26t23.5 -59q0 -34 -23.5 -60t-57.5 -26t-57.5 25.5t-23.5 60.5zM474 113q0 34 23 59.5t57 25.5q35 0 58.5 -26t23.5 -59q0 -34 -24 -60t-58 -26q-33 0 -56.5 25.5t-23.5 60.5zM829 113q0 34 23.5 59.5t57.5 25.5q35 0 58.5 -26 t23.5 -59q0 -34 -24 -60t-58 -26q-33 0 -57 25.5t-24 60.5z" />
<glyph unicode="&#x202f;" horiz-adv-x="359" />
<glyph unicode="&#x2039;" d="M175 563l20 94l866 585l-45 -211l-652 -441l465 -440l-36 -172z" />
<glyph unicode="&#x203a;" d="M46 -43l45 211l653 442l-465 439l36 174l618 -586l-20 -94z" />
<glyph unicode="&#x205f;" horiz-adv-x="449" />
<glyph unicode="&#x20ac;" d="M80 490v150h164l39 192h-97v150h139q31 95 70.5 170t96 139t134.5 99t173 35q256 0 308 -224l-146 -34q-13 55 -48 81.5t-114 26.5q-99 0 -177 -65t-138 -228h457v-150h-503l-42 -192h323v-150h-346q-8 -67 -8 -122q0 -65 12 -112t29 -71.5t41.5 -39t42.5 -17.5t40 -3 q163 0 278 223l134 -68q-157 -305 -412 -305q-73 0 -129.5 24.5t-90.5 63.5t-56 92.5t-30.5 105t-8.5 107.5q0 52 7 122h-142z" />
<glyph unicode="&#x2122;" d="M223 466l163 767h-123l32 150h375l4 17h152l3 -429l186 429h157q0 -5 -2 -15l-197 -919h-154l45 209l-67 -156h-114l-2 196l-53 -249h-154l164 767h-98l-163 -767h-154z" />
<glyph unicode="&#x25fc;" horiz-adv-x="1025" d="M0 0v1025h1025v-1025h-1025z" />
</font>
</defs>
</svg>
