<?xml version="1.0" standalone="no"?>
<!DOCTYPE svg PUBLIC "-//W3C//DTD SVG 1.1//EN" "http://www.w3.org/Graphics/SVG/1.1/DTD/svg11.dtd" >
<svg xmlns="http://www.w3.org/2000/svg">
<metadata></metadata>
<defs>
<font id="ankacoder_condensedbold" horiz-adv-x="1075" >
<font-face units-per-em="2048" ascent="1638" descent="-410" />
<missing-glyph horiz-adv-x="500" />
<glyph horiz-adv-x="0" />
<glyph unicode="&#xd;" />
<glyph unicode=" " />
<glyph unicode="!" d="M351 75q0 71 54 124t132 53q75 0 131 -50t56 -127q0 -76 -55.5 -126.5t-131.5 -50.5q-74 0 -130 51t-56 126zM399 1274q0 68 40 106t94 38q60 0 103 -38t43 -107l-35 -839h-210z" />
<glyph unicode="&#x22;" d="M118 1066q0 15 5 25l70 271q12 41 53.5 71.5t89.5 30.5q61 0 95.5 -40.5t34.5 -98.5q0 -45 -15 -70l-136 -245q-11 -21 -40 -35.5t-58 -14.5q-45 0 -72 34t-27 72zM608 1066q0 15 5 25l70 271q12 41 53.5 71.5t89.5 30.5q61 0 95.5 -40.5t34.5 -98.5q0 -45 -15 -70 l-136 -245q-11 -21 -40 -35.5t-58 -14.5q-45 0 -72 34t-27 72z" />
<glyph unicode="#" d="M26 311l32 210h135l49 317h-134l33 210h134l42 272h212l-42 -272h215l42 272h212l-42 -272h143l-33 -210h-142l-49 -317h141l-32 -210h-141l-47 -311h-213l48 311h-216l-47 -311h-213l48 311h-135zM406 521h215l49 317h-215z" />
<glyph unicode="$" d="M61 357h210q4 -36 23.5 -65.5t47.5 -48t49 -28t42 -15.5v478l-100 44q-21 9 -43.5 22.5t-55 41t-57 60t-42.5 82t-18 105.5v30q0 135 87.5 229.5t228.5 122.5v79h210v-76q67 -10 126.5 -37.5t108.5 -70t77.5 -106.5t28.5 -141h-210q0 106 -131 140v-388l80 -36 q133 -60 199.5 -165t66.5 -217v-30q0 -139 -100.5 -248.5t-245.5 -134.5v-77h-210v77q-128 24 -229 101t-132 190q-10 35 -11 82zM327 1027q0 -8 4 -20t14 -30t33 -37t55 -33v292q-49 -18 -77.5 -53t-28.5 -83v-36zM643 198q57 17 96.5 68t39.5 101v30q0 117 -136 188v-387z " />
<glyph unicode="%" d="M24 167l858 1189l170 -122l-858 -1189zM31 1145q0 126 73.5 209.5t191.5 83.5t191.5 -83.5t73.5 -209.5q0 -125 -74 -209t-191 -84t-191 84t-74 209zM229 1145q0 -40 15.5 -70t51.5 -30q37 0 52 31.5t15 68.5q0 100 -67 100q-35 0 -51 -28t-16 -72zM515 252 q0 126 73.5 209t191.5 83t191.5 -83t73.5 -209q0 -125 -74 -209t-191 -84t-191 84t-74 209zM713 252q0 -40 15.5 -70t51.5 -30q37 0 52 31t15 69q0 99 -67 99q-36 0 -51.5 -29t-15.5 -70z" />
<glyph unicode="&#x26;" d="M61 337v30q0 213 178 350l92 71q-120 188 -120 320v22q0 130 85.5 212.5t231.5 82.5h22q47 -2 62 -4q123 -18 195.5 -100t72.5 -196v-27q0 -31 -3.5 -54.5t-17 -60t-47 -76t-85.5 -80.5l-114 -88l179 -280l79 175l192 -88l-137 -298l116 -182l-178 -112l-71 111 q-113 -90 -271 -90h-21q-180 0 -310 102t-130 260zM271 337q0 -65 67.5 -108.5t162.5 -43.5h21q99 0 157 60l-233 366l-65 -50q-110 -84 -110 -194v-30zM421 1108q0 -64 78 -192l98 75q73 56 73 107v27q0 29 -15 49t-38.5 28t-39 10.5t-27.5 2.5h-22q-36 0 -59.5 -8.5 t-33 -24t-12 -26.5t-2.5 -26v-22z" />
<glyph unicode="'" d="M362 1066v25l78 271q8 40 50 71t92 31q60 0 95 -41t35 -98q0 -45 -15 -70l-138 -245q-11 -21 -39.5 -35.5t-59.5 -14.5q-45 0 -71.5 34t-26.5 72z" />
<glyph unicode="(" d="M305 700q0 140 41.5 273.5t113.5 242.5t157.5 196.5t183.5 154.5l118 -174q-176 -120 -290 -302.5t-114 -390.5t114 -389.5t291 -303.5l-120 -174q-98 68 -183.5 155.5t-157 196t-113 242t-41.5 273.5z" />
<glyph unicode=")" d="M156 7q177 122 291 303.5t114 389.5t-114.5 390.5t-290.5 302.5l118 174q98 -67 184 -154.5t158 -196.5t113.5 -242.5t41.5 -273.5t-41.5 -273.5t-113.5 -242t-157.5 -196t-184.5 -155.5z" />
<glyph unicode="*" d="M86 712q0 19 5 33q11 33 39 53t61 20q14 0 32 -5l210 -68v220q0 43 30.5 74t74.5 31t74.5 -31t30.5 -74v-220l210 68q18 5 32 5q33 0 61 -20t39 -53q5 -14 5 -33q0 -33 -19.5 -61t-52.5 -38l-210 -68l129 -179q20 -27 20 -62q0 -53 -43 -84q-27 -20 -62 -20q-53 0 -84 43 l-130 178l-130 -178q-31 -43 -84 -43q-35 0 -62 20q-43 31 -43 84q0 35 20 62l129 179l-210 68q-33 10 -52.5 38t-19.5 61z" />
<glyph unicode="+" d="M127 495v210h306v306h210v-306h306v-210h-306v-306h-210v306h-306z" />
<glyph unicode="," d="M343 56q0 79 54.5 137.5t139.5 58.5q84 0 139.5 -57.5t55.5 -138.5q0 -354 -341 -390l-20 74q45 17 83.5 49t38.5 70q0 21 -9 42t-28 26q-43 10 -78 48t-35 81z" />
<glyph unicode="-" d="M127 495v210h822v-210h-822z" />
<glyph unicode="." d="M343 59q0 79 54.5 137t139.5 58q84 0 139.5 -57.5t55.5 -137.5q0 -79 -55.5 -137t-139.5 -58q-82 0 -138 57.5t-56 137.5zM544 -31v-10h2v6h4v-6h2v14h-6zM546 -31l1 2h3v-4h-4v2zM554 -31v-10h2v8h2v-8h2v8l-1 2h-5zM562 -31v-10h2v8h2v-8h2v8l-1 2h-5zM568 -49v-4l1 -2 h5v-4h-6v-2h7l1 2v4l-1 2h-5v4h6v2h-7zM570 -31v-2h4v-2h-3l-1 -2v-2l1 -2h5v8l-1 2h-5zM572 -37h2v-2h-2v2zM578 -47v-14h2v8h2v-8h2v8l-1 2h-3v4h-2zM586 -51v-8l1 -2h5v10h-2v-8h-2v8h-2zM594 -53v-6l1 -2h3v-2h-4v-2h5l1 2v12h-5zM596 -53h2v-6h-2v6zM602 -53v-6l1 -2h4 l1 2v6l-1 2h-4zM604 -53h2v-6h-2v6zM610 -47v-14h4v2h-2v12h-2z" />
<glyph unicode="/" d="M119 18l645 1450l192 -86l-645 -1450z" />
<glyph unicode="0" d="M16 192l116 152q-33 142 -33 356q0 78 4 144t15.5 142.5t31 137t53.5 118.5t79 97t110 62.5t146 23.5q203 0 312 -145l127 165l85 -234l-117 -153q32 -140 32 -358q0 -93 -6.5 -171.5t-22.5 -165t-47.5 -153t-78.5 -121.5t-119.5 -84.5t-164.5 -29.5q-203 0 -312 147 l-119 -155zM309 700q0 -65 3 -122l401 523q-53 114 -175 114q-125 0 -177 -121.5t-52 -393.5zM364 301q54 -116 174 -116q124 0 176.5 121t52.5 394q0 66 -3 123z" />
<glyph unicode="1" d="M279 1024l334 399l3 2h141v-1425h-210v1056l-207 -109z" />
<glyph unicode="2" d="M109 0v118l6 19q57 177 178 316l383 438q79 91 79 133v40q0 41 -12 70.5t-29.5 45t-47.5 23.5t-55 10t-63 2h-20q-67 0 -107.5 -14t-59.5 -35.5t-39 -62.5l-188 92q55 114 144.5 172t249.5 58h20q29 0 51.5 -1t68.5 -8.5t81.5 -20t78 -39.5t71 -64t47.5 -96t19 -132v-40 q0 -54 -25.5 -116.5t-105.5 -154.5l-383 -438q-45 -51 -76 -105h592v-210h-858z" />
<glyph unicode="3" d="M110 337h210q0 -75 63.5 -113.5t144.5 -38.5h20q110 0 158.5 60t48.5 182v20q0 70 -14 115.5t-43 69t-63 32t-85 8.5h-196v210h196q67 0 110 48.5t43 93.5v39q0 69 -38.5 110.5t-116.5 41.5h-20q-66 0 -120.5 -27t-75.5 -73l-192 86q33 75 99 127.5t139 74.5t150 22h20 q159 0 262 -100.5t103 -261.5v-39q0 -128 -94 -232q74 -63 110 -144t36 -201v-20q0 -204 -105.5 -328t-311.5 -124h-20q-176 0 -297 101t-121 261z" />
<glyph unicode="4" d="M109 322v163l615 940h163v-893h78v-210h-78v-322h-210v322h-568zM390 532h287v438z" />
<glyph unicode="5" d="M77 210l189 97q10 -43 48 -72t78.5 -39.5t77.5 -10.5h78q207 0 207 262v60q0 136 -52 185.5t-155 49.5h-20q-44 0 -98 -36.5t-84 -97.5l-210 126l93 666h671v-210h-489l-38 -276q79 38 155 38h20q198 0 307.5 -115.5t109.5 -329.5v-60q0 -221 -112 -346.5t-305 -125.5 h-78q-123 0 -235.5 61.5t-157.5 173.5z" />
<glyph unicode="6" d="M110 427v518q1 137 52.5 245.5t147 171.5t218.5 63h20q290 0 379 -178l-188 -94q-9 17 -21 28t-55.5 22.5t-114.5 11.5h-20q-48 0 -85.5 -18.5t-59.5 -47t-37 -66.5t-20.5 -72t-5.5 -68v-38q89 47 208 47h20q198 0 307.5 -115.5t109.5 -329.5v-60q0 -221 -112 -346.5 t-305 -125.5h-20q-177 0 -297.5 121t-120.5 331zM320 447q0 -119 57.5 -190.5t150.5 -71.5h20q207 0 207 262v60q0 136 -52 185.5t-155 49.5h-20q-50 0 -85.5 -10t-64.5 -35t-43.5 -72t-14.5 -118v-60z" />
<glyph unicode="7" d="M109 1190v210h858v-129l-16 -28q-195 -341 -328.5 -642t-202.5 -601h-215q63 295 183 584.5t293 605.5h-572z" />
<glyph unicode="8" d="M110 417v20q0 231 146 355q-37 44 -59.5 95t-28 81.5t-5.5 55.5v40q0 161 102.5 261t262.5 100h20q159 0 262 -100.5t103 -261.5v-39q0 -127 -94 -231q146 -123 146 -356v-20q0 -100 -23 -179t-71 -139t-130 -92t-193 -32h-20q-196 0 -307 119.5t-111 322.5zM320 417 q0 -62 18.5 -109t49.5 -72.5t66 -38t74 -12.5h20q111 0 159 55.5t48 176.5v20q0 70 -14 117t-42.5 72.5t-63.5 35.5t-85 10h-24q-103 -1 -154.5 -50.5t-51.5 -184.5v-20zM373 1016q0 -47 42.5 -90.5t110.5 -43.5h24q67 0 110 48t43 94v39q0 65 -46 108.5t-109 43.5h-20 q-69 0 -112 -42.5t-43 -108.5v-48z" />
<glyph unicode="9" d="M110 900v60q0 218 111 341.5t307 123.5h20q178 0 297.5 -128.5t119.5 -336.5v-517q0 -214 -114.5 -341t-302.5 -127h-20q-291 0 -379 179l188 92q29 -61 191 -61h20q59 0 101.5 22.5t64.5 61.5t31.5 81.5t9.5 92.5v49q-90 -44 -207 -44h-20q-195 0 -306.5 117.5 t-111.5 334.5zM320 900q0 -135 53 -188.5t155 -53.5h20q102 0 154.5 53.5t52.5 188.5v60q0 118 -56.5 186.5t-150.5 68.5h-20q-100 0 -154 -58.5t-54 -196.5v-60z" />
<glyph unicode=":" d="M343 199q0 79 54.5 137t139.5 58q84 0 139.5 -57.5t55.5 -137.5q0 -79 -55.5 -137t-139.5 -58q-82 0 -138 57.5t-56 137.5zM343 917q0 79 54.5 137t139.5 58q84 0 139.5 -57.5t55.5 -137.5q0 -79 -55.5 -137t-139.5 -58q-82 0 -138 57.5t-56 137.5zM544 99h2v6h4v-6h2v14 h-6l-2 -4v-10zM544 817h2v6h4v-6h2v14h-6l-2 -4v-10zM546 107v2l1 2h3v-4h-4zM546 825v2l1 2h3v-4h-4zM554 99h2v8h2v-8h2v8l-1 2h-5v-10zM554 817h2v8h2v-8h2v8l-1 2h-5v-10zM562 99h2v8h2v-8h2v8l-1 2h-5v-10zM562 817h2v8h2v-8h2v8l-1 2h-5v-10zM568 79h7l1 2v4l-1 2h-5 v4h6v2h-7l-1 -2v-4l1 -2h5v-4h-6v-2zM568 797h7l1 2v4l-1 2h-5v4h6v2h-7l-1 -2v-4l1 -2h5v-4h-6v-2zM570 101l1 -2h5v8l-1 2h-5v-2h4v-2h-3l-1 -2v-2zM570 819l1 -2h5v8l-1 2h-5v-2h4v-2h-3l-1 -2v-2zM572 101v2h2v-2h-2zM572 819v2h2v-2h-2zM578 79h2v8h2v-8h2v8l-1 2h-3v4 h-2v-14zM578 797h2v8h2v-8h2v8l-1 2h-3v4h-2v-14zM586 81l1 -2h5v10h-2v-8h-2v8h-2v-8zM586 799l1 -2h5v10h-2v-8h-2v8h-2v-8zM594 75h5l1 2v12h-5l-1 -2v-6l1 -2h3v-2h-4v-2zM594 793h5l1 2v12h-5l-1 -2v-6l1 -2h3v-2h-4v-2zM596 81v6h2v-6h-2zM596 799v6h2v-6h-2zM602 81 l1 -2h4l1 2v6l-1 2h-4l-1 -2v-6zM602 799l1 -2h4l1 2v6l-1 2h-4l-1 -2v-6zM604 81v6h2v-6h-2zM604 799v6h2v-6h-2zM610 79h4v2h-2v12h-2v-14zM610 797h4v2h-2v12h-2v-14z" />
<glyph unicode=";" d="M343 56q0 79 54.5 137.5t139.5 58.5q84 0 139.5 -57.5t55.5 -138.5q0 -354 -341 -390l-20 74q45 17 83.5 49t38.5 70q0 21 -9 42t-28 26q-43 10 -78 48t-35 81zM343 859q0 79 54.5 137t139.5 58q84 0 139.5 -57.5t55.5 -137.5q0 -79 -55.5 -137t-139.5 -58 q-82 0 -138 57.5t-56 137.5zM544 759h2v6h4v-6h2v14h-6l-2 -4v-10zM546 767v2l1 2h3v-4h-4zM554 759h2v8h2v-8h2v8l-1 2h-5v-10zM562 759h2v8h2v-8h2v8l-1 2h-5v-10zM568 739h7l1 2v4l-1 2h-5v4h6v2h-7l-1 -2v-4l1 -2h5v-4h-6v-2zM570 761l1 -2h5v8l-1 2h-5v-2h4v-2h-3 l-1 -2v-2zM572 761v2h2v-2h-2zM578 739h2v8h2v-8h2v8l-1 2h-3v4h-2v-14zM586 741l1 -2h5v10h-2v-8h-2v8h-2v-8zM594 735h5l1 2v12h-5l-1 -2v-6l1 -2h3v-2h-4v-2zM596 741v6h2v-6h-2zM602 741l1 -2h4l1 2v6l-1 2h-4l-1 -2v-6zM604 741v6h2v-6h-2zM610 739h4v2h-2v12h-2v-14z " />
<glyph unicode="&#x3c;" d="M167 516v168l742 555v-262l-505 -377l505 -377v-262z" />
<glyph unicode="=" d="M127 295v210h822v-210h-822zM127 705v210h822v-210h-822z" />
<glyph unicode="&#x3e;" d="M167 -39v262l505 377l-505 377v262l742 -555v-168z" />
<glyph unicode="?" d="M110 1043q0 112 43.5 200.5t130.5 132.5q40 20 88 31t76.5 13.5t79.5 4.5h20q84 0 151.5 -18t110 -44t74 -64t46.5 -70.5t23.5 -71t10 -57t1.5 -37.5v-39q0 -131 -102 -238l-140 -147q-80 -82 -80 -159v-150h-210v150q0 102 40 177.5t108 143.5l130 131q44 44 44 92v39 q0 21 -3 38.5t-15.5 40t-33.5 37.5t-61 25.5t-94 10.5h-20q-50 -2 -84.5 -9.5t-64.5 -25.5t-44.5 -52t-14.5 -85h-210zM376 25q0 62 47 107.5t114 45.5q65 0 113.5 -43.5t48.5 -109.5t-48 -109.5t-114 -43.5q-64 0 -112.5 44.5t-48.5 108.5z" />
<glyph unicode="@" d="M30 700q0 334 139 529.5t369 195.5q241 0 357.5 -89.5t116.5 -273.5v-732h-210v14q-44 -14 -91 -14q-81 0 -138.5 21.5t-89.5 54t-50 85.5t-22.5 99.5t-4.5 111.5q0 49 8 95.5t29.5 95.5t54.5 85t88 59.5t125 23.5h88q-1 49 -21.5 81t-79.5 52.5t-160 20.5 q-57 0 -104.5 -23t-79 -64t-54.5 -91t-35.5 -110t-18.5 -115.5t-6 -111.5q0 -68 8 -134t29 -137t53 -123.5t86 -86.5t122 -34q190 0 253 56l138 -158q-49 -43 -146.5 -70t-170.5 -33l-74 -5q-230 0 -369 195.5t-139 529.5zM616 702q0 -91 20.5 -126.5t74.5 -35.5 q39 0 65 28.5t26 70.5v212h-91q-23 0 -38 -4.5t-29.5 -18.5t-21 -45.5t-6.5 -80.5z" />
<glyph unicode="A" d="M85 0l362 1425h182l362 -1425h-217l-55 219h-362l-55 -219h-217zM411 429h254l-127 502z" />
<glyph unicode="B" d="M110 0v1400h381q72 0 129.5 -8t113 -30.5t92.5 -59.5t59.5 -97.5t22.5 -141.5v-39q0 -154 -76 -242q46 -24 89.5 -99.5t43.5 -197.5v-148q0 -34 -2 -60t-11.5 -63t-25.5 -64.5t-47.5 -57t-74 -48.5t-108.5 -31.5t-148 -12.5h-438zM320 210h228q68 0 109 6.5t62.5 23.5 t28.5 38.5t7 58.5v148q0 47 -14 79.5t-32 49t-50.5 25t-53.5 10t-57 1.5h-228v-440zM320 860h171q56 0 96 10.5t60.5 24t32.5 38.5t14.5 43t3.5 48v39q0 37 -8.5 60.5t-21.5 37t-42.5 20t-56 8t-78.5 1.5h-171v-330z" />
<glyph unicode="C" d="M99 647v105q0 121 15.5 220.5t40.5 168t61.5 121t74.5 82.5t83.5 49t83.5 25.5t80 6.5q306 0 397 -323l-202 -56q-26 94 -71.5 131.5t-123.5 37.5q-118 0 -173.5 -113.5t-55.5 -349.5v-105q0 -244 54 -353t175 -109q74 0 119 36t71 124l202 -60q-45 -150 -143.5 -230 t-248.5 -80q-439 0 -439 672z" />
<glyph unicode="D" d="M110 0v1400h428q80 0 145 -21.5t110 -57t78.5 -90t53.5 -112t32 -131.5t16 -141t4 -147q0 -95 -6.5 -174t-23.5 -162t-49 -146t-79 -113.5t-118.5 -77.5t-162.5 -27h-428zM320 210h218q125 0 177 111t52 379q0 270 -50.5 380t-178.5 110h-218v-980z" />
<glyph unicode="E" d="M110 0v1400h857v-210h-647v-330h540v-210h-540v-439h647v-211h-857z" />
<glyph unicode="F" d="M110 106v1294h857v-210h-647v-330h540v-210h-540v-544h-210z" />
<glyph unicode="G" d="M99 700q0 77 4 143t15.5 142.5t31 137t53 119t78.5 97.5t110.5 62.5t146.5 23.5q307 0 397 -323l-202 -56q-26 94 -71.5 131.5t-123.5 37.5q-125 0 -177 -121.5t-52 -393.5q0 -270 51.5 -392.5t177.5 -122.5q176 0 219 121v206h-169v210h379v-449l-5 -15 q-38 -125 -142.5 -204t-281.5 -79q-72 0 -131.5 17.5t-102.5 51.5t-77 76.5t-55.5 99t-36.5 112t-22.5 122.5t-10.5 123.5t-3 122.5z" />
<glyph unicode="H" d="M110 0v1400h210v-595h435v595h210v-1400h-210v595h-435v-595h-210z" />
<glyph unicode="I" d="M109 0v210h324v980h-324v210h858v-210h-324v-980h324v-210h-858z" />
<glyph unicode="J" d="M75 213l202 54q8 -21 12 -29.5t19 -24t43.5 -22t72.5 -6.5h20q27 1 43.5 2.5t40.5 10t37.5 23.5t23.5 44.5t10 71.5v853h-226v210h617v-210h-181v-853q0 -52 -8 -97.5t-32 -96t-62.5 -86t-106 -59t-156.5 -23.5h-20q-42 0 -80 6t-66.5 15t-54.5 23.5t-43.5 27.5t-34 32.5 t-25.5 32.5t-18.5 32.5t-13 28.5t-8.5 25z" />
<glyph unicode="K" d="M112 0v1400h210v-583l413 583h258l-435 -613l449 -787h-241l-342 598l-102 -144v-454h-210z" />
<glyph unicode="L" d="M110 0v1400h210v-1189h647v-211h-857z" />
<glyph unicode="M" d="M16 0l117 1400h216l189 -665l189 665h216l116 -1400h-211l-68 819l-164 -576h-156l-164 576l-68 -819h-212z" />
<glyph unicode="N" d="M110 0v1400h182l463 -891v891h210v-1400h-182l-463 890v-890h-210z" />
<glyph unicode="O" d="M100 616v167q0 115 15.5 209.5t40.5 160t61.5 115t74.5 79t83 47.5t83.5 24.5t79.5 6.5t79.5 -6t83.5 -24t83 -46.5t74 -77.5t61 -112.5t40.5 -156t15.5 -204.5v-190q0 -112 -15.5 -205t-40.5 -157.5t-61 -113.5t-74 -78.5t-83 -47.5t-83.5 -24.5t-79.5 -6.5t-79.5 6.5 t-83.5 24.5t-83 47t-74.5 79t-61.5 115t-40.5 159.5t-15.5 209.5zM310 616q0 -217 55.5 -324t172.5 -107q227 0 227 423v190q0 212 -55.5 314.5t-171.5 102.5t-172 -106.5t-56 -325.5v-167z" />
<glyph unicode="P" d="M110 0v1400h438q224 0 320.5 -84t96.5 -253v-121q0 -35 -5.5 -70t-21 -82.5t-53.5 -90.5t-93 -71q-95 -48 -244 -48h-228v-580h-210zM320 790h228q34 0 52 1t46.5 5t44.5 13.5t32.5 25.5t24 43t7.5 64v121q0 29 -2 44.5t-13 34t-32.5 27.5t-61 15t-98.5 6h-228v-400z" />
<glyph unicode="Q" d="M99 700q0 78 4 144t15.5 142.5t31 137t53.5 118.5t79 97t110 62.5t146 23.5t147 -23.5t111 -62.5t78.5 -97t52.5 -118.5t31 -137.5t15.5 -142.5t3.5 -143.5q0 -425 -142 -596l115 -194l-180 -108l-112 188q-54 -15 -120 -15q-82 0 -148.5 24.5t-111.5 64t-78.5 99 t-52 120.5t-30 137.5t-15 140.5t-3.5 139zM309 700q0 -275 53 -395t176 -120h5l-95 160l180 108l87 -146q52 118 52 393t-51 395t-178 120q-125 0 -177 -121.5t-52 -393.5z" />
<glyph unicode="R" d="M110 0v1400h438q224 0 320.5 -84t96.5 -253v-120q0 -143 -69.5 -230.5t-193.5 -116.5l318 -596h-239l-309 580h-152v-580h-210zM320 790h228q46 2 70.5 4.5t55 11t45.5 24t25.5 44t10.5 69.5v120q0 29 -2 44.5t-13 34t-32.5 27.5t-61 15t-98.5 6h-228v-400z" />
<glyph unicode="S" d="M61 357h210q9 -82 81 -127t176 -45h20q94 0 162.5 43.5t68.5 108.5v30q0 61 -37.5 126t-106.5 96l-302 133q-21 9 -43.5 22t-55 40.5t-57 60t-42.5 82.5t-18 106v30q0 161 119 261.5t299 100.5h8q196 0 318.5 -100.5t122.5 -261.5h-210q0 43 -22 74.5t-58.5 47.5 t-73.5 23t-77 7h-8q-91 0 -149.5 -40.5t-58.5 -111.5v-36q0 -7 2 -16.5t9.5 -28t28 -37t50.5 -31.5l306 -135q68 -30 121 -80t83.5 -107t46 -114t15.5 -111v-30q0 -158 -130.5 -260t-310.5 -102h-20q-429 0 -467 382z" />
<glyph unicode="T" d="M86 1190v210h904v-210h-347v-1190h-210v1190h-347z" />
<glyph unicode="U" d="M110 337v1063h210v-1063q0 -41 7.5 -66.5t29 -46.5t63.5 -30t108 -9h20q55 0 93 6.5t60.5 17.5t34.5 31.5t15.5 42t3.5 54.5v1063h210v-1063q0 -362 -417 -362h-20q-418 0 -418 362z" />
<glyph unicode="V" d="M82 1400h217l239 -928l238 928h217l-366 -1425h-178z" />
<glyph unicode="W" d="M16 1400h212l68 -818l164 576h156l164 -576l68 818h211l-116 -1400h-216l-189 666l-189 -666h-216z" />
<glyph unicode="X" d="M91 0l331 700l-331 700h232l215 -454l215 454h232l-331 -700l331 -700h-232l-215 454l-215 -454h-232z" />
<glyph unicode="Y" d="M87 1400h225l226 -592l226 592h225l-346 -906v-519h-210v519z" />
<glyph unicode="Z" d="M109 0v130l575 1060h-575v210h858v-127l-576 -1062h576v-211h-858z" />
<glyph unicode="[" d="M305 -185v1770h555v-210h-345v-1350h345v-210h-555z" />
<glyph unicode="\" d="M119 1382l192 86l645 -1450l-192 -86z" />
<glyph unicode="]" d="M215 25h346v1350h-346v210h556v-1770h-556v210z" />
<glyph unicode="^" d="M173 1017l287 408h156l287 -408l-172 -120l-193 274l-193 -274z" />
<glyph unicode="_" d="M167 13h742v-210h-742v210z" />
<glyph unicode="`" d="M291 1329q0 59 37 96q38 38 96 38q70 0 117 -52l223 -272q19 -22 19 -63q0 -49 -26 -76q-29 -28 -76 -28q-40 0 -65 19l-273 223q-52 42 -52 115z" />
<glyph unicode="a" d="M110 291v46q0 79 54 157q28 41 65 72.5t75.5 49t71.5 29t68.5 15.5t51 5t32.5 1h227v21q0 41 -11 69.5t-26 43.5t-46 24t-55 11t-69 4h-20q-56 0 -94.5 -6.5t-58 -18.5t-26.5 -19t-13 -19l-188 92q29 50 43 66q99 115 337 115h20q41 0 74 -2t78 -11t80 -23.5t71 -42 t60 -64.5t39 -93t15 -126v-687h-210v36q-48 -27 -99.5 -42.5t-79.5 -17.5l-28 -1h-20q-204 0 -329 121q-89 88 -89 195zM320 291q0 -11 11 -27.5t33.5 -34.5t66 -31t97.5 -13h20q49 0 91 18t66 43.5t37 47.5t13 35v127h-227q-135 0 -192 -82q-16 -23 -16 -37v-46z" />
<glyph unicode="b" d="M110 0v1400h210v-395q90 44 208 44h20q195 0 306 -117.5t111 -334.5v-170q0 -219 -111 -335.5t-306 -116.5h-20q-113 0 -208 52v-27h-210zM320 427q0 -117 56.5 -179.5t151.5 -62.5h20q102 0 154.5 53t52.5 189v170q0 135 -52.5 188.5t-154.5 53.5h-20q-102 0 -155 -53.5 t-53 -188.5v-170z" />
<glyph unicode="c" d="M110 427v170q0 217 111.5 334t306.5 117h20q86 0 153 -15.5t105 -36t67.5 -52t41 -52.5t23.5 -49q3 -7 4 -10l-198 -70q-5 12 -8 18t-17 19t-32.5 19.5t-54.5 12.5t-84 6h-20q-102 0 -155 -53t-53 -188v-170q0 -117 56.5 -179.5t151.5 -62.5h20q91 0 136.5 17t59.5 55 l196 -74q-19 -50 -49 -87.5t-68.5 -59t-72.5 -35t-78.5 -19t-67 -6.5t-56.5 -1h-20q-85 0 -160.5 30t-133 86t-91 143t-33.5 193z" />
<glyph unicode="d" d="M110 427v170q0 217 111.5 334.5t306.5 117.5h20q117 0 207 -44v395h210v-1400h-210v19q-90 -44 -207 -44h-20q-177 0 -297.5 121t-120.5 331zM320 427q0 -117 56.5 -179.5t151.5 -62.5h20q102 0 154.5 53t52.5 189v170q0 135 -52.5 188.5t-154.5 53.5h-20 q-102 0 -155 -53.5t-53 -188.5v-170z" />
<glyph unicode="e" d="M110 337v350q0 225 174 313q98 49 244 49h20q84 0 152.5 -18t111 -44t73.5 -64t46 -70t23.5 -71t9.5 -57.5t1 -37.5v-231h-645v-119q0 -38 6 -61.5t25.5 -46.5t63 -33.5t113.5 -10.5h20q97 0 141 19.5t57 60.5l200 -62q-18 -61 -59 -106t-84.5 -67.5t-98.5 -36t-88.5 -16 t-67.5 -2.5h-20q-418 0 -418 362zM320 666h435v21q0 23 -2 39.5t-13.5 39.5t-32.5 37.5t-61.5 25t-97.5 10.5h-20q-52 0 -83.5 -4t-63 -18.5t-46.5 -46.5t-15 -83v-21z" />
<glyph unicode="f" d="M109 719v210h210v223q0 109 93 191t220 82h20q30 0 60.5 -4.5t74 -21t77.5 -44t63 -80t38 -122.5h-210q-5 30 -36.5 46t-66.5 16h-20q-25 0 -44.5 -6t-30 -14.5t-17.5 -18t-9 -15.5t-2 -9v-223h331v-210h-331v-719h-210v719h-210z" />
<glyph unicode="g" d="M110 -87q0 15 4.5 38t21 60t43.5 65q-60 77 -60 169v36q0 94 65 175q-38 55 -56 115.5t-18 89.5v26q0 63 31 131q47 102 156.5 166.5t230.5 64.5h21q113 0 219 -58q83 73 187 73v-210q-15 0 -35 -11q45 -72 45 -156v-26q0 -83 -31 -150t-77.5 -107.5t-105 -68.5 t-109 -38.5t-94.5 -10.5h-20q-82 0 -178 41q-21 -24 -21 -46v-36q0 -28 30 -55q85 30 169 30h20q89 0 162.5 -23t119.5 -58t77.5 -77.5t44.5 -80t13 -68.5v-20q0 -19 -6.5 -48t-34.5 -78t-74 -84q-57 -43 -136 -70t-166 -27h-20q-182 0 -303 97q-115 93 -115 210v20z M320 -87v-20q0 -12 18 -31.5t69 -40.5t121 -25h20q77 0 142 32.5t65 64.5v16q0 9 -19.5 29.5t-70.5 43.5t-117 28h-20q-53 0 -103.5 -20t-77.5 -42t-27 -35zM320 653q0 -13 8.5 -35t28.5 -51.5t65 -50t106 -20.5h20q69 0 138 46t69 119v26q0 70 -59.5 111t-147.5 41h-20 q-73 0 -140.5 -46t-67.5 -106v-34z" />
<glyph unicode="h" d="M110 0v1400h210v-419q97 68 208 68h20q85 0 153.5 -18t111 -44t73.5 -64.5t45.5 -70t23 -71t9.5 -57t1 -37.5v-687h-210v687q0 24 -11 49t-33.5 49t-64.5 39t-98 15h-20q-55 0 -105.5 -44.5t-76.5 -100t-26 -97.5v-597h-210z" />
<glyph unicode="i" d="M215 0v210h218v604h-218v210h428v-814h217v-210h-645zM390 1297q0 65 45 110.5t110 45.5q64 0 110.5 -46t46.5 -110t-46.5 -110t-110.5 -46q-65 0 -110 45.5t-45 110.5z" />
<glyph unicode="j" d="M266 -110h210q0 -31 26 -55t66 -24q47 0 71 22t24 59v922h-349v210h559v-1134q0 -116 -85 -202.5t-220 -86.5q-140 0 -221 83t-81 206zM571 1297q0 65 45 110.5t110 45.5q64 0 110.5 -46t46.5 -110t-46.5 -110t-110.5 -46q-65 0 -110 45.5t-45 110.5z" />
<glyph unicode="k" d="M110 0v1425h210v-780l464 490l152 -144l-358 -378l410 -613h-252l-306 456l-110 -116v-340h-210z" />
<glyph unicode="l" d="M215 0v210h218v980h-218v210h428v-1190h217v-210h-645z" />
<glyph unicode="m" d="M64 0v1024h194q52 25 112 25h12q118 0 185 -63q28 35 81 49t91 14h12q53 0 94.5 -10.5t68.5 -26t46.5 -40t29 -46.5t15 -52.5t6.5 -50t1 -46.5v-777h-210v777q0 39 -10.5 50.5t-40.5 11.5h-12q-47 0 -71.5 -51t-24.5 -101v-687h-210v777q0 44 -7.5 53t-43.5 9h-12 q-47 0 -71.5 -51t-24.5 -101v-687h-210z" />
<glyph unicode="n" d="M110 0v1024h210v-43q97 68 208 68h20q84 0 151.5 -18t110 -44t74 -64t46.5 -70.5t23.5 -71t10 -57t1.5 -37.5v-687h-210v687q0 22 -2.5 39t-14 39.5t-32.5 37.5t-61.5 25.5t-96.5 10.5h-20q-55 0 -105.5 -44.5t-76.5 -100t-26 -97.5v-597h-210z" />
<glyph unicode="o" d="M99 513q0 96 15.5 175t40.5 133.5t61.5 96t74.5 66t83.5 39.5t83.5 20t80 5q41 0 80 -5t84 -20.5t83 -39.5t74.5 -65.5t61.5 -96t40.5 -133.5t15.5 -175q0 -133 -29.5 -233.5t-73.5 -157t-106 -91.5t-116 -45.5t-114 -10.5t-114 10.5t-116 45.5t-106 91.5t-73.5 157 t-29.5 233.5zM309 513q0 -99 16.5 -165.5t48.5 -101t71 -48t93 -13.5q55 0 94 14t71 49t48 101t16 164q0 97 -16 163t-48 100.5t-71 48t-94 13.5q-57 0 -97.5 -15t-71 -51.5t-45.5 -100.5t-15 -158z" />
<glyph unicode="p" d="M110 -385v1409h210v-19q90 44 208 44h20q195 0 306 -117.5t111 -334.5v-170q0 -219 -111 -335.5t-306 -116.5h-20q-113 0 -208 52v-412h-210zM320 427q0 -117 56.5 -179.5t151.5 -62.5h20q102 0 154.5 53t52.5 189v170q0 135 -52.5 188.5t-154.5 53.5h-20 q-102 0 -155 -53.5t-53 -188.5v-170z" />
<glyph unicode="q" d="M110 427v170q0 217 111.5 334.5t306.5 117.5h20q117 0 207 -44v19h210v-1409h-210v404q-90 -44 -207 -44h-20q-177 0 -297.5 121t-120.5 331zM320 427q0 -117 56.5 -179.5t151.5 -62.5h20q102 0 154.5 53t52.5 189v170q0 135 -52.5 188.5t-154.5 53.5h-20 q-102 0 -155 -53.5t-53 -188.5v-170z" />
<glyph unicode="r" d="M110 0v1024h210v-95q135 120 289 120h20q219 0 330 -165l-182 -104q-7 11 -20 22t-48 24t-80 13h-20q-70 0 -138 -56.5t-109.5 -142.5t-41.5 -170v-470h-210z" />
<glyph unicode="s" d="M76 337h210q0 -49 56.5 -100.5t150.5 -51.5h55q33 0 67 5t66.5 16.5t53 32t20.5 48.5v14q0 36 -40 53l-432 173q-46 18 -80 46t-51 53t-27.5 53t-12.5 42t-2 24v12q0 22 2.5 44t16 60t37 68t70.5 59.5t112 44.5q70 16 180 16h20q35 0 77 -7t100.5 -30t106.5 -60.5 t86 -106t47 -158.5h-210q-6 42 -29.5 73.5t-56 47.5t-63.5 23.5t-58 7.5h-20q-70 0 -114 -6t-63.5 -19t-25 -25.5t-5.5 -31.5v-11q0 -10 37 -23l436 -175q83 -34 127.5 -99.5t44.5 -147.5v-14q0 -11 -2 -27t-11.5 -47t-25.5 -59.5t-47.5 -61.5t-73.5 -56q-110 -61 -257 -61 h-55q-57 0 -116.5 16.5t-113 48.5t-95.5 75.5t-67 101t-25 120.5z" />
<glyph unicode="t" d="M109 798v210h230l24 417h211l-25 -417h311v-210h-323l-32 -556q0 -1 2 -6t9 -14t17.5 -17t30.5 -14t45 -6h20q37 0 68.5 18t34.5 44h210q-2 -12 -3.5 -28.5t-2.5 -22.5t-3.5 -16.5t-7 -20.5t-12.5 -26q-3 -6 -10 -17t-32 -38t-54.5 -48t-80 -38t-107.5 -17h-20 q-48 0 -100.5 16t-101.5 46.5t-80.5 83t-31.5 117.5v16l32 544h-218z" />
<glyph unicode="u" d="M110 337v687h210v-687q0 -38 5.5 -61.5t23 -46.5t56 -33.5t99.5 -10.5h21q54 0 109.5 48.5t88 109.5t32.5 104v577h210v-1024h-210v61q-111 -86 -230 -86h-21q-73 0 -133 12.5t-100 33t-70.5 50.5t-47 60.5t-27 69t-13.5 69.5t-3 67z" />
<glyph unicode="v" d="M94 1024h223l221 -628l222 628h223l-371 -1049h-148z" />
<glyph unicode="w" d="M20 1024h211l64 -513l169 408h148l169 -407l64 512h211l-126 -1024h-163l-229 550l-229 -550h-163z" />
<glyph unicode="x" d="M91 0l323 512l-323 512h249l198 -315l198 315h249l-323 -512l322 -512h-248l-198 315l-198 -315h-249z" />
<glyph unicode="y" d="M62 -110h210q0 -34 32.5 -56.5t75.5 -22.5t71 29.5t40 76.5l51 194l-445 913h233l295 -603l161 603h217l-310 -1161q-36 -135 -122.5 -198.5t-196.5 -63.5q-29 0 -49.5 2.5t-54 12t-68.5 35t-70 65.5q-64 76 -70 174z" />
<glyph unicode="z" d="M106 0v136l537 678h-476v210h806v-131l-541 -683h541v-210h-867z" />
<glyph unicode="{" d="M167 595v210h30q47 0 76.5 27t39 61.5t9.5 76.5v240q0 156 109.5 265.5t265.5 109.5h120v-210h-120q-69 0 -117 -48t-48 -117v-240q0 -163 -95 -270q95 -107 95 -270v-240q0 -69 48 -117t117 -48h120v-210h-120q-156 0 -265.5 109.5t-109.5 265.5v240q0 45 -12.5 78.5 t-28 49.5t-36.5 25t-31 10.5t-17 1.5h-30z" />
<glyph unicode="|" d="M433 -77v1554h210v-1554h-210z" />
<glyph unicode="}" d="M167 25h120q69 0 117 48t48 117v240q0 163 95 270q-95 107 -95 270v240q0 69 -48 117t-117 48h-120v210h120q156 0 265.5 -109.5t109.5 -265.5v-240q0 -42 9.5 -76.5t39 -61.5t76.5 -27h30v-210h-30q-46 0 -75 -26t-39.5 -61t-10.5 -78v-240q0 -156 -109.5 -265.5 t-265.5 -109.5h-120v210z" />
<glyph unicode="~" d="M115 829q27 79 59 125q41 59 98.5 93.5t121.5 34.5h15q25 0 43 -3t50.5 -20.5t65.5 -50.5l93 -93q14 -9 21 -9h10q15 2 34 29t35 75l200 -66q-23 -73 -69 -132q-90 -116 -207 -116h-3h-15q-84 0 -154 70l-93 93q-13 13 -26 13h-10q-32 0 -67 -101z" />
<glyph unicode="&#xa0;" />
<glyph unicode="&#xa2;" d="M110 427v170q0 217 111.5 334t306.5 117h42l36 171l206 -44l-35 -166q18 -8 34 -17t28.5 -17.5t24 -20t19.5 -20t16.5 -20.5t13 -19t10.5 -18.5t8 -16.5t6 -15.5t5 -11.5l-198 -70l-13 26l-126 -602q116 8 139 70l196 -74q-20 -53 -54.5 -92.5t-70.5 -60.5t-85 -33.5 t-85 -16.5t-85 -5l-22 -107l-206 44l21 99q-111 48 -177 155.5t-66 260.5zM320 427q0 -138 78 -200l128 611q-101 0 -153.5 -53.5t-52.5 -187.5v-170z" />
<glyph unicode="&#xa3;" d="M57 159l37 21q84 48 154.5 129.5t70.5 160.5v46q0 36 -19 78h-214v210h94q-1 2 -14 27t-16.5 33l-14 32t-14 40t-7.5 40t-4 48v39q0 78 38 147.5t99 115.5t135 72.5t146 26.5h20q107 0 198 -41.5t148 -121.5q65 -85 71 -193l-210 -12q-5 69 -63 113.5t-144 44.5h-20 q-53 0 -95.5 -17.5t-66 -43.5t-35.5 -50t-12 -41v-39q0 -38 39 -108l65 -112h414v-210h-317q9 -45 9 -78v-46q0 -107 -59 -209q46 -1 132 -35l64 -25q37 -16 56 -16h33q31 0 58.5 6.5t40 12t16.5 8.5q9 7 10 8l150 -146l-18 -17q-26 -25 -48.5 -39.5t-77.5 -28.5t-131 -14 h-51q-43 0 -107 25l-80 34q-39 17 -60 17h-33q-84 0 -122.5 -7.5t-103.5 -43.5l-37 -25z" />
<glyph unicode="&#xa5;" d="M87 1400h225l226 -592l226 592h225l-299 -783h277v-210h-324v-147h324v-210h-324v-210h-210v210h-324v210h324v147h-324v210h277z" />
<glyph unicode="&#xa8;" d="M108 1526q0 66 44.5 107.5t102.5 41.5q62 0 105 -44.5t43 -104.5q0 -62 -43.5 -108.5t-103.5 -46.5t-104 45.5t-44 109.5zM675 1526q0 63 43.5 106t103.5 43q56 0 100.5 -42t44.5 -107q0 -66 -44 -110.5t-101 -44.5q-59 0 -103 46t-44 109z" />
<glyph unicode="&#xa9;" d="M5 609q0 148 62.5 267.5t185.5 191.5t285 72q125 0 227 -42t168 -115t102 -169t36 -205q0 -105 -35.5 -200.5t-101.5 -170t-168.5 -118.5t-227.5 -44q-124 0 -226 42.5t-168.5 116t-102.5 169.5t-36 205zM155 609q0 -77 24 -145t70 -121.5t120.5 -85t168.5 -31.5 q95 0 170 32t120.5 86.5t69 122t23.5 142.5q0 77 -23.5 144.5t-68.5 121t-120 84.5t-171 31q-93 0 -167.5 -30.5t-120.5 -83.5t-70.5 -121t-24.5 -146zM234 608q0 130 84 216.5t220 86.5q139 0 223 -88l-110 -103q-40 41 -113 41q-77 0 -115.5 -43.5t-38.5 -109.5 q0 -65 38.5 -109t115.5 -44q74 0 114 43l110 -102q-86 -91 -224 -91t-221 87.5t-83 215.5z" />
<glyph unicode="&#xab;" d="M144 393v151l198 296l174 -116l-162 -244v-23l162 -243l-174 -116zM564 393v151l198 296l174 -116l-162 -244v-23l162 -243l-174 -116z" />
<glyph unicode="&#xad;" d="M127 495v210h822v-210h-822z" />
<glyph unicode="&#xae;" d="M5 609q0 148 62.5 267.5t185.5 191.5t285 72q125 0 227 -42t168 -115t102 -169t36 -205q0 -105 -35.5 -200.5t-101.5 -170t-168.5 -118.5t-227.5 -44q-124 0 -226 42.5t-168.5 116t-102.5 169.5t-36 205zM155 609q0 -77 24 -145t70 -121.5t120.5 -85t168.5 -31.5 q95 0 170 32t120.5 86.5t69 122t23.5 142.5q0 77 -23.5 144.5t-68.5 121t-120 84.5t-171 31q-93 0 -167.5 -30.5t-120.5 -83.5t-70.5 -121t-24.5 -146zM316 339v571h239q61 0 106.5 -14t68 -33t36 -45.5t16.5 -43t3 -32.5v-41q0 -111 -103 -155l104 -167l-128 -79l-138 224 h-54v-185h-150zM466 674h89q34 0 53 6.5t23 14t4 18.5v18q0 15 -15 22t-65 7h-89v-86z" />
<glyph unicode="&#xb4;" d="M299 1325l258 363l221 -158l-258 -363z" />
<glyph unicode="&#xb8;" d="M328 -391l98 114q68 -59 152 -59q37 0 74 16.5t37 49.5q0 19 -12.5 32.5t-33 19.5t-39 8.5t-38.5 2.5h-80l14 210v15h150v-21l-4 -60q51 -9 88.5 -29.5t57 -42.5t31 -50.5t14 -47t2.5 -37.5q0 -101 -91 -164q-75 -52 -170 -52q-140 0 -250 95z" />
<glyph unicode="&#xbb;" d="M140 214l162 243v23l-162 244l174 116l198 -296v-151l-198 -295zM560 214l162 243v23l-162 244l174 116l198 -296v-151l-198 -295z" />
<glyph unicode="&#x2c6;" d="M295 1521l166 117h154l166 -117l-86 -121l-157 108l-157 -108z" />
<glyph unicode="&#x2da;" d="M328 1425q0 84 58 143t142 59t144 -59t60 -143t-60 -143t-144 -59t-142 59t-58 143zM438 1425q0 -38 26.5 -65t64.5 -27t65.5 27t27.5 65t-27.5 65t-65.5 27t-64.5 -27t-26.5 -65z" />
<glyph unicode="&#x2dc;" d="M200 1548l20 26q28 35 50 55.5t62.5 39t88.5 18.5h16q79 0 141 -55l19 -17q23 -18 41 -18h17q43 0 85 57l17 23l120 -90l-17 -23q-57 -77 -91.5 -97t-113.5 -20h-17q-74 0 -141 56l-19 16q-22 18 -41 18h-16q-39 0 -83 -56l-20 -25z" />
<glyph unicode="&#x400;" d="M110 0v1400h857v-210h-647v-330h540v-210h-540v-439h647v-211h-857zM326 1654l141 135l257 -272l-141 -135z" />
<glyph unicode="&#x401;" d="M108 1592q0 66 44.5 107.5t102.5 41.5q62 0 105 -44.5t43 -104.5q0 -62 -43.5 -108.5t-103.5 -46.5t-104 45.5t-44 109.5zM110 0v1400h857v-210h-647v-330h540v-210h-540v-439h647v-211h-857zM675 1592q0 63 43.5 106t103.5 43q56 0 100.5 -42t44.5 -107 q0 -66 -44 -110.5t-101 -44.5q-59 0 -103 46t-44 109z" />
<glyph unicode="&#x402;" d="M86 1190v210h777v-210h-334v-251q74 53 149 53h21q135 0 218 -81.5t83 -223.5v-351q0 -33 -1.5 -59t-8 -62.5t-17 -64t-31 -57.5t-48.5 -49t-70.5 -31.5t-95.5 -12.5h-21v210h21q30 0 44.5 25t17.5 101v351q0 53 -21.5 74t-69.5 21h-21q-9 0 -23.5 -6.5t-37.5 -30.5 t-42 -61t-32.5 -107t-13.5 -160v-417h-210v1190h-233z" />
<glyph unicode="&#x403;" d="M110 0v1400h857v-210h-647v-1190h-210zM413 1518l257 272l141 -135l-257 -272z" />
<glyph unicode="&#x404;" d="M99 700q0 78 4 144t15.5 142.5t31 137t53.5 118.5t79 97t110 62.5t146 23.5q305 0 396 -320l-202 -58q-26 93 -71.5 130.5t-122.5 37.5q-109 0 -162 -92t-64 -292h311v-210h-313q7 -232 60.5 -334t167.5 -102q75 0 119 35t71 121l200 -62q-94 -304 -390 -304 q-82 0 -148.5 24.5t-111.5 64t-78.5 99t-52 120.5t-30 137.5t-15 140.5t-3.5 139z" />
<glyph unicode="&#x405;" d="M61 357h210q9 -82 81 -127t176 -45h20q94 0 162.5 43.5t68.5 108.5v30q0 61 -37.5 126t-106.5 96l-302 133q-21 9 -43.5 22t-55 40.5t-57 60t-42.5 82.5t-18 106v30q0 161 119 261.5t299 100.5h8q196 0 318.5 -100.5t122.5 -261.5h-210q0 43 -22 74.5t-58.5 47.5 t-73.5 23t-77 7h-8q-91 0 -149.5 -40.5t-58.5 -111.5v-36q0 -7 2 -16.5t9.5 -28t28 -37t50.5 -31.5l306 -135q68 -30 121 -80t83.5 -107t46 -114t15.5 -111v-30q0 -158 -130.5 -260t-310.5 -102h-20q-429 0 -467 382z" />
<glyph unicode="&#x406;" d="M109 0v210h324v980h-324v210h858v-210h-324v-980h324v-210h-858z" />
<glyph unicode="&#x407;" d="M109 0v210h324v980h-324v210h858v-210h-324v-980h324v-210h-858zM109 1594q0 66 44.5 107.5t102.5 41.5q62 0 105 -44.5t43 -104.5q0 -62 -43.5 -108.5t-103.5 -46.5t-104 45.5t-44 109.5zM676 1594q0 63 43.5 106t103.5 43q56 0 100.5 -42t44.5 -107q0 -66 -44 -110.5 t-101 -44.5q-59 0 -103 46t-44 109z" />
<glyph unicode="&#x408;" d="M75 213l202 54q8 -21 12 -29.5t19 -24t43.5 -22t72.5 -6.5h20q27 1 43.5 2.5t40.5 10t37.5 23.5t23.5 44.5t10 71.5v853h-226v210h617v-210h-181v-853q0 -52 -8 -97.5t-32 -96t-62.5 -86t-106 -59t-156.5 -23.5h-20q-42 0 -80 6t-66.5 15t-54.5 23.5t-43.5 27.5t-34 32.5 t-25.5 32.5t-18.5 32.5t-13 28.5t-8.5 25z" />
<glyph unicode="&#x409;" d="M48 0l109 1085q7 74 35 133.5t66.5 95.5t70.5 56t61 30h266v-530q79 -2 142 -20t103 -42.5t69 -60t43 -65.5t22 -67.5t9.5 -57t1.5 -42.5v-158q0 -70 -17 -126t-43.5 -92.5t-65 -63.5t-74.5 -41t-80.5 -22t-74 -10t-62.5 -2h-183v1190h-32q-16 -10 -30 -50t-17 -75 l-109 -1065h-210zM656 210q59 2 95 11.5t54.5 30t24.5 44t6 61.5v158q0 76 -36.5 107.5t-143.5 36.5v-449z" />
<glyph unicode="&#x40a;" d="M53 0v1400h211v-530h182v530h210v-531q93 -4 164.5 -30t113 -62.5t68 -85t35.5 -90.5t9 -86v-158q0 -14 -1.5 -31.5t-7 -48t-15 -59t-28 -61.5t-43 -59t-62.5 -48.5t-85 -33.5q-68 -16 -175 -16h-183v660h-183v-660h-210zM656 210q59 1 97.5 13t55.5 35t22 44.5t5 54.5 v158q0 78 -46.5 109.5t-133.5 35.5v-450z" />
<glyph unicode="&#x40b;" d="M86 1190v210h777v-210h-334v-251q73 53 149 53h21q135 0 218 -81.5t83 -223.5v-687h-210v687q0 52 -21 73.5t-70 21.5h-21q-71 0 -110 -99t-39 -266v-417h-210v1190h-233z" />
<glyph unicode="&#x40c;" d="M112 0v1400h210v-583l413 583h258l-435 -613l449 -787h-241l-342 598l-102 -144v-454h-210zM291 1518l257 272l141 -135l-257 -272z" />
<glyph unicode="&#x40d;" d="M110 0v1400h210v-891l463 891h182v-1400h-210v890l-463 -890h-182zM390 1655l141 135l257 -272l-141 -135z" />
<glyph unicode="&#x40e;" d="M90 1400h229l278 -631l178 631h218l-333 -1184q-66 -238 -307 -241h-33q-56 0 -102 16l-38 13l70 198l30 -11q15 -6 40 -6h31q53 1 73.5 22t33.5 69l50 175zM269 1605l115 96q70 -85 173 -85q104 0 177 86l114 -97q-56 -65 -131 -102t-160 -37q-84 0 -159 37t-129 102z " />
<glyph unicode="&#x40f;" d="M110 0v1400h210v-1190h435v1190h210v-1400h-322v-385h-210v385h-323z" />
<glyph unicode="&#x410;" d="M85 0l362 1425h182l362 -1425h-217l-55 219h-362l-55 -219h-217zM411 429h254l-127 502z" />
<glyph unicode="&#x411;" d="M110 -25v1425h753v-210h-543v-330h228q83 0 149 -13t109 -33t74 -52t47 -60.5t25 -68t11 -66t2 -62.5v-173q0 -37 -1.5 -61.5t-10 -65.5t-23.5 -69t-46 -61t-74 -53t-110 -33.5t-152 -13.5h-438zM320 185h228q67 0 110.5 11t63.5 33.5t26.5 45t6.5 57.5v173 q0 83 -41.5 114t-165.5 31h-228v-465z" />
<glyph unicode="&#x412;" d="M110 0v1400h381q72 0 129.5 -8t113 -30.5t92.5 -59.5t59.5 -97.5t22.5 -141.5v-39q0 -154 -76 -242q46 -24 89.5 -99.5t43.5 -197.5v-148q0 -34 -2 -60t-11.5 -63t-25.5 -64.5t-47.5 -57t-74 -48.5t-108.5 -31.5t-148 -12.5h-438zM320 210h228q68 0 109 6.5t62.5 23.5 t28.5 38.5t7 58.5v148q0 47 -14 79.5t-32 49t-50.5 25t-53.5 10t-57 1.5h-228v-440zM320 860h171q56 0 96 10.5t60.5 24t32.5 38.5t14.5 43t3.5 48v39q0 37 -8.5 60.5t-21.5 37t-42.5 20t-56 8t-78.5 1.5h-171v-330z" />
<glyph unicode="&#x413;" d="M110 0v1400h857v-210h-647v-1190h-210z" />
<glyph unicode="&#x414;" d="M64 -25v236h99l149 777q6 34 18.5 70t41 87t67 95.5t102.5 88t143 71.5h258v-1189h70v-217l-59 -156h-151v162h-528v-162h-158zM377 211h355v979h-12q-72 -30 -129.5 -97t-72.5 -145z" />
<glyph unicode="&#x415;" d="M110 0v1400h857v-210h-647v-330h540v-210h-540v-439h647v-211h-857z" />
<glyph unicode="&#x416;" d="M28 0l249 686l-244 714h221l179 -522v442h210v-442l181 522h219l-244 -715l249 -685h-224l-134 368l-47 -138v-230h-210v230l-48 139l-133 -369h-224z" />
<glyph unicode="&#x417;" d="M87 337h210q0 -50 27.5 -84t69 -47t66.5 -17t44 -4h44q114 0 160.5 47t46.5 165v20q0 137 -53 195.5t-152 59.5h-196v210h196q67 0 110 48.5t43 93.5v39q0 69 -38.5 110.5t-116.5 41.5h-44q-66 0 -120.5 -27t-74.5 -72l-192 84q33 76 99 128.5t138.5 74.5t149.5 22h44 q159 0 262 -100.5t103 -261.5v-39q0 -128 -94 -232q146 -124 146 -375v-20q0 -200 -104 -311t-313 -111h-44q-176 0 -296.5 101t-120.5 261z" />
<glyph unicode="&#x418;" d="M110 0v1400h210v-891l463 891h182v-1400h-210v890l-463 -890h-182z" />
<glyph unicode="&#x419;" d="M110 0v1400h210v-891l463 891h182v-1400h-210v890l-463 -890h-182zM266 1606l115 96q70 -85 173 -85q104 0 177 86l114 -97q-56 -65 -131 -102t-160 -37q-84 0 -159 37t-129 102z" />
<glyph unicode="&#x41a;" d="M112 0v1400h210v-583l413 583h258l-435 -613l449 -787h-241l-342 598l-102 -144v-454h-210z" />
<glyph unicode="&#x41b;" d="M63 0l239 993q7 29 19.5 62.5t42.5 84.5t69.5 96t105.5 90.5t145 73.5h281v-1400h-210v1190h-35q-73 -30 -134 -98.5t-80 -148.5l-227 -943h-216z" />
<glyph unicode="&#x41c;" d="M16 0l117 1400h216l189 -665l189 665h216l116 -1400h-211l-68 819l-164 -576h-156l-164 576l-68 -819h-212z" />
<glyph unicode="&#x41d;" d="M110 0v1400h210v-595h435v595h210v-1400h-210v595h-435v-595h-210z" />
<glyph unicode="&#x41e;" d="M100 616v167q0 115 15.5 209.5t40.5 160t61.5 115t74.5 79t83 47.5t83.5 24.5t79.5 6.5t79.5 -6t83.5 -24t83 -46.5t74 -77.5t61 -112.5t40.5 -156t15.5 -204.5v-190q0 -112 -15.5 -205t-40.5 -157.5t-61 -113.5t-74 -78.5t-83 -47.5t-83.5 -24.5t-79.5 -6.5t-79.5 6.5 t-83.5 24.5t-83 47t-74.5 79t-61.5 115t-40.5 159.5t-15.5 209.5zM310 616q0 -217 55.5 -324t172.5 -107q227 0 227 423v190q0 212 -55.5 314.5t-171.5 102.5t-172 -106.5t-56 -325.5v-167z" />
<glyph unicode="&#x41f;" d="M110 0v1400h855v-1400h-210v1190h-435v-1190h-210z" />
<glyph unicode="&#x420;" d="M110 0v1400h438q224 0 320.5 -84t96.5 -253v-121q0 -35 -5.5 -70t-21 -82.5t-53.5 -90.5t-93 -71q-95 -48 -244 -48h-228v-580h-210zM320 790h228q34 0 52 1t46.5 5t44.5 13.5t32.5 25.5t24 43t7.5 64v121q0 29 -2 44.5t-13 34t-32.5 27.5t-61 15t-98.5 6h-228v-400z" />
<glyph unicode="&#x421;" d="M99 647v105q0 121 15.5 220.5t40.5 168t61.5 121t74.5 82.5t83.5 49t83.5 25.5t80 6.5q306 0 397 -323l-202 -56q-26 94 -71.5 131.5t-123.5 37.5q-118 0 -173.5 -113.5t-55.5 -349.5v-105q0 -244 54 -353t175 -109q74 0 119 36t71 124l202 -60q-45 -150 -143.5 -230 t-248.5 -80q-439 0 -439 672z" />
<glyph unicode="&#x422;" d="M86 1190v210h904v-210h-347v-1190h-210v1190h-347z" />
<glyph unicode="&#x423;" d="M90 1400h229l278 -631l178 631h218l-333 -1184q-66 -238 -307 -241h-33q-56 0 -102 16l-38 13l70 198l30 -11q15 -6 40 -6h31q53 1 73.5 22t33.5 69l50 175z" />
<glyph unicode="&#x424;" d="M41 700q0 131 23.5 235t61 170t90.5 112.5t105 69t112 32.5v106h210v-105q60 -10 112 -32t105 -68.5t90.5 -112.5t61 -170.5t23.5 -236.5q0 -281 -102.5 -430.5t-289.5 -179.5v-115h-210v115q-60 10 -112 32t-105 67.5t-90.5 110.5t-61 167.5t-23.5 232.5zM251 700 q0 -184 46.5 -275.5t135.5 -118.5v798q-89 -29 -135.5 -124t-46.5 -280zM643 305q89 26 135.5 118.5t46.5 276.5q0 187 -46.5 281.5t-135.5 122.5v-799z" />
<glyph unicode="&#x425;" d="M91 0l331 700l-331 700h232l215 -454l215 454h232l-331 -700l331 -700h-232l-215 454l-215 -454h-232z" />
<glyph unicode="&#x426;" d="M110 0v1400h210v-1190h355v1190h210v-1189h126v-128l-145 -316l-191 88l67 145h-632z" />
<glyph unicode="&#x427;" d="M110 782v618h210v-618q0 -46 14 -79t32.5 -49.5t50.5 -25t53.5 -10t57.5 -1.5h227v783h210v-1400h-210v407h-227q-280 0 -377 188q-41 79 -41 187z" />
<glyph unicode="&#x428;" d="M53 0v1400h210v-1190h170v942h210v-942h170v1190h210v-1400h-970z" />
<glyph unicode="&#x429;" d="M53 0v1400h210v-1190h141v942h210v-942h141v1190h210v-1189h80v-128l-145 -316l-190 88l66 145h-723z" />
<glyph unicode="&#x42a;" d="M74 961v439h420v-580h124q176 0 274 -130q73 -98 73 -235v-108q0 -13 -2 -32t-10 -54t-21.5 -67.5t-40 -69t-61.5 -63t-90 -44t-122 -17.5h-334v1190h-54l-77 -229h-79zM494 210h124q43 0 72 12t42 33.5t18 43t5 48.5v108q0 46 -15 78.5t-38 48t-44 22t-40 6.5h-124v-400 z" />
<glyph unicode="&#x42b;" d="M76 0v1400h210v-531q94 -4 165.5 -29t113 -60.5t68 -84t35.5 -94t9 -96.5v-158q0 -274 -243 -331q-68 -16 -175 -16h-183zM286 210q60 2 98 12.5t55.5 31.5t22.5 41t5 52v158q0 83 -47 116.5t-134 37.5v-449zM790 0v1400h210v-1400h-210z" />
<glyph unicode="&#x42c;" d="M110 0v1400h210v-580h228q24 0 47.5 -1.5t67.5 -9.5t81 -21.5t80 -42t72 -66.5t49 -98.5t20 -135.5v-108q0 -28 -3.5 -57t-18 -72.5t-39 -78.5t-71.5 -67t-110 -46q-68 -16 -175 -16h-438zM320 210h228q68 0 110.5 8t63 26t27 38.5t6.5 54.5v108q0 45 -12.5 77 t-30.5 48.5t-48.5 26t-55 11.5t-60.5 2h-228v-400z" />
<glyph unicode="&#x42d;" d="M141 1102q91 323 397 323q81 0 146 -23.5t110 -62.5t79 -97t53.5 -118.5t31 -137t15.5 -142.5t4 -144q0 -75 -3.5 -139t-15 -140.5t-30.5 -137.5t-52.5 -120.5t-78.5 -99t-111 -64t-148 -24.5q-65 0 -121.5 16t-109 50.5t-94.5 96.5t-67 147l202 60q26 -88 70.5 -124 t119.5 -36q120 0 172.5 112t56.5 354h-314v210l309 -1q-13 185 -65.5 270t-158.5 85q-78 0 -123.5 -37.5t-71.5 -131.5z" />
<glyph unicode="&#x42e;" d="M53 0v1400h210v-595h137q3 58 5.5 94.5t7.5 90t11 88.5t15 80.5t21.5 75t29 63t38 54.5t48.5 39t61 26.5t74 8.5q66 0 115.5 -19.5t84 -62.5t56.5 -100t34.5 -143t17 -179t4.5 -221q0 -154 -7.5 -262.5t-28 -200.5t-55.5 -147t-89.5 -85t-131.5 -30q-45 0 -82 11 t-65 28.5t-51 49t-38.5 61t-27.5 77.5t-19.5 85.5t-13 98t-8.5 101.5t-6 108h-137v-595h-210zM609 700q0 -221 25 -368t77 -147q102 0 102 515t-102 515q-29 0 -50 -50t-31.5 -132t-15.5 -164.5t-5 -168.5z" />
<glyph unicode="&#x42f;" d="M56 0l318 596q-27 7 -51 15t-66.5 33.5t-71.5 60t-52 97t-23 141.5v120q0 19 3 43.5t16.5 66t34.5 77.5t63 71t97 53q80 26 204 26h437v-1400h-210v580h-151l-309 -580h-239zM320 943q0 -42 12 -71.5t29 -45.5t47.5 -24t55 -10t64.5 -2h227v400h-227q-71 0 -115.5 -10 t-63.5 -31t-24 -39t-5 -47v-120z" />
<glyph unicode="&#x430;" d="M110 291v46q0 79 54 157q28 41 65 72.5t75.5 49t71.5 29t68.5 15.5t51 5t32.5 1h227v21q0 41 -11 69.5t-26 43.5t-46 24t-55 11t-69 4h-20q-56 0 -94.5 -6.5t-58 -18.5t-26.5 -19t-13 -19l-188 92q29 50 43 66q99 115 337 115h20q41 0 74 -2t78 -11t80 -23.5t71 -42 t60 -64.5t39 -93t15 -126v-687h-210v36q-48 -27 -99.5 -42.5t-79.5 -17.5l-28 -1h-20q-204 0 -329 121q-89 88 -89 195zM320 291q0 -11 11 -27.5t33.5 -34.5t66 -31t97.5 -13h20q49 0 91 18t66 43.5t37 47.5t13 35v127h-227q-135 0 -192 -82q-16 -23 -16 -37v-46z" />
<glyph unicode="&#x431;" d="M110 427v496q0 121 37 215.5t99 150t136 83.5t155 28q117 0 161 6.5t129 34.5l66 -200q-100 -33 -161 -41.5t-195 -9.5q-31 0 -60.5 -7.5t-60.5 -26t-55 -56.5t-34 -92q87 41 201 41h20q195 0 306 -117.5t111 -334.5v-170q0 -219 -111 -335.5t-306 -116.5h-20 q-177 0 -297.5 121t-120.5 331zM320 427q0 -117 56.5 -179.5t151.5 -62.5h20q102 0 154.5 53t52.5 189v170q0 135 -52.5 188.5t-154.5 53.5h-20q-102 0 -155 -53.5t-53 -188.5v-170z" />
<glyph unicode="&#x432;" d="M110 0v1024h399q126 0 212 -28q110 -35 157.5 -96.5t47.5 -159.5q0 -62 -10.5 -92.5t-49.5 -76.5q121 -92 121 -246v-9q0 -316 -416 -316h-461zM320 210h251q68 0 113 10.5t63.5 29.5t24 33.5t5.5 32.5v9q0 119 -207 119h-250v-234zM320 654h189q92 0 137 9.5t57.5 26 t12.5 50.5q0 74 -207 74h-189v-160z" />
<glyph unicode="&#x433;" d="M76 287v14q0 82 44.5 147.5t127.5 99.5l437 175q13 5 24.5 16t11.5 20v12q0 26 -12 39t-57.5 21t-137.5 8h-21q-79 0 -143 -48.5t-64 -103.5h-210q0 142 123.5 252t293.5 110h21q110 0 180 -16q65 -15 112 -44.5t70 -59.5t36.5 -68.5t16 -59.5t2.5 -44v-12 q0 -149 -172 -218l-433 -173q-40 -17 -40 -53v-14q0 -28 20.5 -48.5t53 -32t66.5 -16.5t67 -5h55q95 0 151 51.5t56 100.5h210q0 -103 -65 -188t-160 -129.5t-192 -44.5h-55q-142 0 -257 61q-51 27 -86 65.5t-49.5 76.5t-19.5 63.5t-5 45.5z" />
<glyph unicode="&#x434;" d="M64 -7v218h99l80 413q14 81 63.5 154.5t115 124t137 82.5t133.5 39h250v-813h70v-214l-61 -159h-149v162h-528v-162h-152zM377 211h355v603h-21q-87 -18 -168 -85.5t-94 -142.5z" />
<glyph unicode="&#x435;" d="M110 337v350q0 225 174 313q98 49 244 49h20q84 0 152.5 -18t111 -44t73.5 -64t46 -70t23.5 -71t9.5 -57.5t1 -37.5v-231h-645v-119q0 -38 6 -61.5t25.5 -46.5t63 -33.5t113.5 -10.5h20q97 0 141 19.5t57 60.5l200 -62q-18 -61 -59 -106t-84.5 -67.5t-98.5 -36t-88.5 -16 t-67.5 -2.5h-20q-418 0 -418 362zM320 666h435v21q0 23 -2 39.5t-13.5 39.5t-32.5 37.5t-61.5 25t-97.5 10.5h-20q-52 0 -83.5 -4t-63 -18.5t-46.5 -46.5t-15 -83v-21z" />
<glyph unicode="&#x436;" d="M15 991l188 94l230 -460v399h210v-399l230 460l188 -94l-252 -503l211 -488h-229l-105 243l-43 -87v-156h-210v156l-44 88l-105 -244h-228l210 490z" />
<glyph unicode="&#x437;" d="M110 297h210q0 -33 37 -61q68 -51 171 -51h20q50 0 94 11t78.5 41.5t34.5 76.5v20q0 34 -28 64q-56 57 -179 57h-124v210h126q62 0 107.5 27t45.5 73v11q0 9 -9.5 21.5t-47.5 26.5t-98 14h-44q-66 0 -120.5 -27t-74.5 -72l-192 84q33 76 99 128.5t138.5 74.5t149.5 22h44 q57 0 95 -7t88 -27q88 -37 135 -101t47 -137v-11q0 -123 -71 -188q123 -103 123 -243v-20q0 -85 -48 -162q-54 -86 -151.5 -131.5t-217.5 -45.5h-20q-86 0 -157.5 21t-118.5 55t-80 77t-47.5 86t-14.5 83z" />
<glyph unicode="&#x438;" d="M110 0v1024h210v-629l469 629h176v-1024h-210v627l-468 -627h-177z" />
<glyph unicode="&#x439;" d="M110 0v1024h210v-629l469 629h176v-1024h-210v627l-468 -627h-177zM248 1308l115 96q70 -85 173 -85q104 0 177 86l114 -97q-56 -65 -131 -102t-160 -37q-84 0 -159 37t-129 102z" />
<glyph unicode="&#x43a;" d="M110 0v1024h210v-574l494 600l162 -134l-378 -458l401 -458h-279l-257 293l-143 -173v-120h-210z" />
<glyph unicode="&#x43b;" d="M67 0l190 632q10 33 26 67t50 80.5t78.5 88t115.5 84t157 72.5h281v-1024h-210v813h-36q-92 -35 -167 -104.5t-93 -132.5l-172 -576h-220z" />
<glyph unicode="&#x43c;" d="M17 0l95 1024h218l208 -567l209 567h218l94 -1024h-212l-49 553l-165 -447h-190l-163 447l-51 -553h-212z" />
<glyph unicode="&#x43d;" d="M110 0v1024h210v-449h435v449h210v-1024h-210v365h-435v-365h-210z" />
<glyph unicode="&#x43e;" d="M99 513q0 96 15.5 175t40.5 133.5t61.5 96t74.5 66t83.5 39.5t83.5 20t80 5q41 0 80 -5t84 -20.5t83 -39.5t74.5 -65.5t61.5 -96t40.5 -133.5t15.5 -175q0 -133 -29.5 -233.5t-73.5 -157t-106 -91.5t-116 -45.5t-114 -10.5t-114 10.5t-116 45.5t-106 91.5t-73.5 157 t-29.5 233.5zM309 513q0 -99 16.5 -165.5t48.5 -101t71 -48t93 -13.5q55 0 94 14t71 49t48 101t16 164q0 97 -16 163t-48 100.5t-71 48t-94 13.5q-57 0 -97.5 -15t-71 -51.5t-45.5 -100.5t-15 -158z" />
<glyph unicode="&#x43f;" d="M110 0v1024h210v-43q97 68 208 68h20q84 0 151.5 -18t110 -44t74 -64t46.5 -70.5t23.5 -71t10 -57t1.5 -37.5v-687h-210v687q0 22 -2.5 39t-14 39.5t-32.5 37.5t-61.5 25.5t-96.5 10.5h-20q-55 0 -105.5 -44.5t-76.5 -100t-26 -97.5v-597h-210z" />
<glyph unicode="&#x440;" d="M110 -385v1409h210v-19q90 44 208 44h20q195 0 306 -117.5t111 -334.5v-170q0 -219 -111 -335.5t-306 -116.5h-20q-113 0 -208 52v-412h-210zM320 427q0 -117 56.5 -179.5t151.5 -62.5h20q102 0 154.5 53t52.5 189v170q0 135 -52.5 188.5t-154.5 53.5h-20 q-102 0 -155 -53.5t-53 -188.5v-170z" />
<glyph unicode="&#x441;" d="M110 427v170q0 217 111.5 334t306.5 117h20q86 0 153 -15.5t105 -36t67.5 -52t41 -52.5t23.5 -49q3 -7 4 -10l-198 -70q-5 12 -8 18t-17 19t-32.5 19.5t-54.5 12.5t-84 6h-20q-102 0 -155 -53t-53 -188v-170q0 -117 56.5 -179.5t151.5 -62.5h20q91 0 136.5 17t59.5 55 l196 -74q-19 -50 -49 -87.5t-68.5 -59t-72.5 -35t-78.5 -19t-67 -6.5t-56.5 -1h-20q-85 0 -160.5 30t-133 86t-91 143t-33.5 193z" />
<glyph unicode="&#x442;" d="M86 815v209h904v-209h-347v-815h-210v815h-347z" />
<glyph unicode="&#x443;" d="M62 -110h210q0 -34 32.5 -56.5t75.5 -22.5t71 29.5t40 76.5l51 194l-445 913h233l295 -603l161 603h217l-310 -1161q-36 -135 -122.5 -198.5t-196.5 -63.5q-29 0 -49.5 2.5t-54 12t-68.5 35t-70 65.5q-64 76 -70 174z" />
<glyph unicode="&#x444;" d="M53 473q0 215 101.5 343t278.5 157v76h210v-76q177 -29 278.5 -157t101.5 -343q0 -217 -101.5 -340t-278.5 -150v-368h-210v368q-177 27 -278.5 150t-101.5 340zM263 473q0 -235 170 -277v562q-170 -47 -170 -285zM643 196q170 42 170 277q0 238 -170 285v-562z" />
<glyph unicode="&#x445;" d="M91 0l323 512l-323 512h249l198 -315l198 315h249l-323 -512l322 -512h-248l-198 315l-198 -315h-249z" />
<glyph unicode="&#x446;" d="M110 337v687h210v-687q0 -39 5.5 -63t23 -46.5t56 -32.5t99.5 -10h21q54 0 109.5 48.5t88 109.5t32.5 104v577h210v-877q49 -68 49 -203q0 -76 -57 -148t-139 -116l-100 184q28 15 49.5 35t28.5 33l8 12q0 50 -8 69.5t-41 45.5v2q-111 -86 -230 -86h-21q-73 0 -133 12.5 t-100 33t-70.5 50.5t-47 60.5t-27 69t-13.5 69.5t-3 67z" />
<glyph unicode="&#x447;" d="M110 697v327h210v-327q0 -27 1.5 -43t6.5 -38t17 -35t31.5 -25.5t51.5 -18t76 -5.5h21q53 0 108.5 51.5t88.5 115.5t33 108v217h210v-1024h-210v411q-110 -89 -230 -89h-21q-79 0 -142 16t-103 39.5t-69.5 59.5t-44.5 67.5t-23.5 72.5t-10 65.5t-1.5 54.5z" />
<glyph unicode="&#x448;" d="M64 247v777h210v-777q0 -35 11.5 -48.5t39.5 -13.5h12q42 0 69 52.5t27 99.5v687h210v-777q0 -34 12.5 -48t38.5 -14h12q47 0 71.5 51t24.5 101v687h210v-1024h-194q-58 -25 -112 -25h-12q-64 0 -99 10.5t-86 52.5q-78 -63 -172 -63h-12q-54 0 -96.5 13t-69.5 32 t-46.5 47.5t-28.5 51.5t-14 53t-5.5 43.5t-0.5 31.5z" />
<glyph unicode="&#x449;" d="M64 247v777h210v-777q0 -34 12 -48t39 -14h12q47 0 71.5 51t24.5 101v687h210v-777q0 -32 12 -47t39 -15h12q47 0 71.5 51t24.5 101v687h210v-875q17 -24 34 -70t17 -100q0 -175 -199 -299l-100 184q89 55 89 117q0 18 -8 33q-65 -39 -137 -39h-2h-12q-70 0 -109 14 t-76 49q-77 -63 -172 -63h-12q-54 0 -96.5 13t-69.5 32t-46.5 47.5t-28.5 51.5t-14 53t-5.5 43.5t-0.5 31.5z" />
<glyph unicode="&#x44a;" d="M74 572v439h420v-345h54q146 0 256 -60q72 -39 116.5 -102.5t44.5 -146.5v-46q0 -19 -5 -44t-19.5 -63.5t-49.5 -77.5t-86 -66q-111 -59 -257 -60h-264v801h-53l-74 -229h-83zM494 209h54q33 0 67 5t66.5 16.5t53 32t20.5 48.5v46q0 43 -61.5 71t-145.5 28h-54v-247z" />
<glyph unicode="&#x44b;" d="M53 0v1024h210v-358h20q133 0 236 -55q50 -27 85 -68.5t49 -82t19 -65.5t5 -38v-46q0 -83 -42 -149t-115 -106q-102 -56 -237 -56h-230zM263 210h20q84 0 136 29q48 26 48 72v46q0 42 -49 70q-52 29 -135 29h-20v-246zM813 0v1024h210v-1024h-210z" />
<glyph unicode="&#x44c;" d="M110 0v1048h210v-382h228q129 0 256 -57q52 -23 87.5 -61.5t49.5 -79t19 -66t5 -45.5v-46q0 -83 -44.5 -147t-116.5 -104q-110 -60 -256 -60h-438zM320 210h228q87 0 147 28t60 73v46q0 31 -28.5 53t-69.5 31t-67.5 12t-41.5 3h-228v-246z" />
<glyph unicode="&#x44d;" d="M116 833q29 67 55 97q97 118 339 118h21q195 0 306 -117t111 -334v-170q0 -106 -33.5 -192.5t-91 -142.5t-132.5 -86.5t-160 -30.5h-21q-29 0 -49.5 0.5t-57 5t-65 12t-63.5 23t-62 37t-52.5 55t-41.5 75.5l196 74q14 -38 60 -55t135 -17h21q90 0 146 57t61 165h-366v210 h366q-4 124 -56.5 172.5t-150.5 48.5h-21q-48 0 -84.5 -6t-54.5 -12.5t-32 -20t-16.5 -18.5t-8.5 -18z" />
<glyph unicode="&#x44e;" d="M64 0v1024h210v-407h94q7 71 19 129t36.5 116t58 97.5t86.5 64t120 24.5q90 0 153.5 -37t100.5 -109t53.5 -167.5t16.5 -221.5q0 -130 -16.5 -226t-53.5 -168t-100.5 -108t-153.5 -36q-55 0 -99 12.5t-75.5 33t-55.5 54t-38.5 67t-25 82t-16 88.5t-10.5 95h-94v-407h-210 zM575 513q0 -57 5 -109.5t16.5 -104.5t35 -83t56.5 -31q114 0 114 328q0 57 -5 108.5t-16.5 103t-35.5 82.5t-57 31t-57 -31t-35 -82.5t-16 -103t-5 -108.5z" />
<glyph unicode="&#x44f;" d="M110 83l257 325q-69 16 -120 51t-76 70.5t-40 76.5t-18 61t-3 32v21q0 89 50.5 158.5t129.5 102.5q91 39 238 43h437v-1024h-210v382h-141l-340 -429zM320 699q0 -40 38.5 -65.5t82 -33.5t87.5 -8h227v221h-227q-95 -3 -151.5 -29t-56.5 -64v-21z" />
<glyph unicode="&#x450;" d="M110 337v350q0 225 174 313q98 49 244 49h20q84 0 152.5 -18t111 -44t73.5 -64t46 -70t23.5 -71t9.5 -57.5t1 -37.5v-231h-645v-119q0 -38 6 -61.5t25.5 -46.5t63 -33.5t113.5 -10.5h20q97 0 141 19.5t57 60.5l200 -62q-18 -61 -59 -106t-84.5 -67.5t-98.5 -36t-88.5 -16 t-67.5 -2.5h-20q-418 0 -418 362zM314 1419l141 135l257 -272l-141 -135zM320 666h435v21q0 23 -2 39.5t-13.5 39.5t-32.5 37.5t-61.5 25t-97.5 10.5h-20q-52 0 -83.5 -4t-63 -18.5t-46.5 -46.5t-15 -83v-21z" />
<glyph unicode="&#x451;" d="M110 337v350q0 225 174 313q98 49 244 49h20q84 0 152.5 -18t111 -44t73.5 -64t46 -70t23.5 -71t9.5 -57.5t1 -37.5v-231h-645v-119q0 -38 6 -61.5t25.5 -46.5t63 -33.5t113.5 -10.5h20q97 0 141 19.5t57 60.5l200 -62q-18 -61 -59 -106t-84.5 -67.5t-98.5 -36t-88.5 -16 t-67.5 -2.5h-20q-418 0 -418 362zM136 1258q0 66 44.5 107.5t102.5 41.5q62 0 105 -44.5t43 -104.5q0 -62 -43.5 -108.5t-103.5 -46.5t-104 45.5t-44 109.5zM320 666h435v21q0 23 -2 39.5t-13.5 39.5t-32.5 37.5t-61.5 25t-97.5 10.5h-20q-52 0 -83.5 -4t-63 -18.5 t-46.5 -46.5t-15 -83v-21zM703 1258q0 63 43.5 106t103.5 43q56 0 100.5 -42t44.5 -107q0 -66 -44 -110.5t-101 -44.5q-59 0 -103 46t-44 109z" />
<glyph unicode="&#x452;" d="M40 1048v210h128v166h210v-166h326v-210h-326v-190q96 70 207 70h21q359 0 359 -375v-581q0 -156 -98.5 -263.5t-253.5 -107.5h-59q-25 0 -49.5 3t-44.5 8.5t-38 12.5t-32.5 15.5t-26.5 16t-21.5 15.5t-15.5 13t-11 10l-5 5l154 144q27 -33 90 -33h59q67 0 104.5 46 t37.5 115v581q0 50 -4.5 77t-19.5 49.5t-45 30.5t-80 8h-21q-53 0 -103 -47t-77 -105.5t-27 -102.5v-463h-210v1048h-128z" />
<glyph unicode="&#x453;" d="M76 287v14q0 82 44.5 147.5t127.5 99.5l437 175q13 5 24.5 16t11.5 20v12q0 26 -12 39t-57.5 21t-137.5 8h-21q-79 0 -143 -48.5t-64 -103.5h-210q0 142 123.5 252t293.5 110h21q110 0 180 -16q65 -15 112 -44.5t70 -59.5t36.5 -68.5t16 -59.5t2.5 -44v-12 q0 -149 -172 -218l-433 -173q-40 -17 -40 -53v-14q0 -28 20.5 -48.5t53 -32t66.5 -16.5t67 -5h55q95 0 151 51.5t56 100.5h210q0 -103 -65 -188t-160 -129.5t-192 -44.5h-55q-142 0 -257 61q-51 27 -86 65.5t-49.5 76.5t-19.5 63.5t-5 45.5zM334 1272l257 272l141 -135 l-257 -272z" />
<glyph unicode="&#x454;" d="M129 427v170q0 217 111 334t306 117h21q62 0 115 -8.5t89 -19.5t67 -31.5t48 -35.5t33.5 -40.5t22 -36.5t15.5 -34q3 -6 4 -9l-198 -70q-6 15 -12.5 24t-25.5 23t-59 21t-99 7h-21q-98 0 -150.5 -48.5t-56.5 -172.5h367v-210h-367q5 -108 61 -165t146 -57h21q89 0 135 17 t60 55l196 -74q-22 -58 -61 -99.5t-77 -62t-91 -31.5t-85 -13t-77 -2h-21q-85 0 -160 30.5t-132.5 86.5t-91 142.5t-33.5 192.5z" />
<glyph unicode="&#x455;" d="M76 337h210q0 -49 56.5 -100.5t150.5 -51.5h55q33 0 67 5t66.5 16.5t53 32t20.5 48.5v14q0 36 -40 53l-432 173q-46 18 -80 46t-51 53t-27.5 53t-12.5 42t-2 24v12q0 22 2.5 44t16 60t37 68t70.5 59.5t112 44.5q70 16 180 16h20q35 0 77 -7t100.5 -30t106.5 -60.5 t86 -106t47 -158.5h-210q-6 42 -29.5 73.5t-56 47.5t-63.5 23.5t-58 7.5h-20q-70 0 -114 -6t-63.5 -19t-25 -25.5t-5.5 -31.5v-11q0 -10 37 -23l436 -175q83 -34 127.5 -99.5t44.5 -147.5v-14q0 -11 -2 -27t-11.5 -47t-25.5 -59.5t-47.5 -61.5t-73.5 -56q-110 -61 -257 -61 h-55q-57 0 -116.5 16.5t-113 48.5t-95.5 75.5t-67 101t-25 120.5z" />
<glyph unicode="&#x456;" d="M215 0v210h218v604h-218v210h428v-814h217v-210h-645zM390 1297q0 65 45 110.5t110 45.5q64 0 110.5 -46t46.5 -110t-46.5 -110t-110.5 -46q-65 0 -110 45.5t-45 110.5z" />
<glyph unicode="&#x457;" d="M119 1256q0 66 44.5 107.5t102.5 41.5q62 0 105 -44.5t43 -104.5q0 -62 -43.5 -108.5t-103.5 -46.5t-104 45.5t-44 109.5zM215 0v210h218v604h-218v210h428v-814h217v-210h-645zM686 1256q0 63 43.5 106t103.5 43q56 0 100.5 -42t44.5 -107q0 -66 -44 -110.5t-101 -44.5 q-59 0 -103 46t-44 109z" />
<glyph unicode="&#x458;" d="M266 -110h210q0 -31 26 -55t66 -24q47 0 71 22t24 59v922h-349v210h559v-1134q0 -116 -85 -202.5t-220 -86.5q-140 0 -221 83t-81 206zM571 1297q0 65 45 110.5t110 45.5q64 0 110.5 -46t46.5 -110t-46.5 -110t-110.5 -46q-65 0 -110 45.5t-45 110.5z" />
<glyph unicode="&#x459;" d="M48 0l43 622q6 83 24 147t41.5 104.5t60 71t69 47t78.5 32.5h281v-358h54q130 0 221.5 -85t91.5 -224v-46q0 -139 -90.5 -225t-222.5 -86h-264v813h-35q-48 -20 -70 -63.5t-29 -141.5l-42 -608h-211zM644 210h55q41 0 72 23t31 78v46q0 54 -31 76.5t-72 22.5h-55v-246z " />
<glyph unicode="&#x45a;" d="M64 0v1024h210v-358h160v358h210v-358h55q130 0 221.5 -85t91.5 -224v-46q0 -139 -90.5 -225t-222.5 -86h-265v456h-160v-456h-210zM644 210h55q41 0 72 23t31 78v46q0 54 -31 76.5t-72 22.5h-55v-246z" />
<glyph unicode="&#x45b;" d="M79 1178v150h453v-150h-453zM110 0v1400h210v-419q97 68 208 68h20q85 0 153.5 -18t111 -44t73.5 -64.5t45.5 -70t23 -71t9.5 -57t1 -37.5v-687h-210v687q0 24 -11 49t-33.5 49t-64.5 39t-98 15h-20q-55 0 -105.5 -44.5t-76.5 -100t-26 -97.5v-597h-210z" />
<glyph unicode="&#x45c;" d="M110 0v1024h210v-574l494 600l162 -134l-378 -458l401 -458h-279l-257 293l-143 -173v-120h-210zM332 1293l257 272l141 -135l-257 -272z" />
<glyph unicode="&#x45d;" d="M110 0v1024h210v-629l469 629h176v-1024h-210v627l-468 -627h-177zM362 1420l141 135l257 -272l-141 -135z" />
<glyph unicode="&#x45e;" d="M62 -110h210q0 -34 32.5 -56.5t75.5 -22.5t71 29.5t40 76.5l51 194l-445 913h233l295 -603l161 603h217l-310 -1161q-36 -135 -122.5 -198.5t-196.5 -63.5q-29 0 -49.5 2.5t-54 12t-68.5 35t-70 65.5q-64 76 -70 174zM268 1308l115 96q70 -85 173 -85q104 0 177 86 l114 -97q-56 -65 -131 -102t-160 -37q-84 0 -159 37t-129 102z" />
<glyph unicode="&#x45f;" d="M110 0v1024h212l-2 -813h435v813h210v-1024h-322v-385h-210v385h-323z" />
<glyph unicode="&#x2000;" horiz-adv-x="895" />
<glyph unicode="&#x2001;" horiz-adv-x="1790" />
<glyph unicode="&#x2002;" horiz-adv-x="895" />
<glyph unicode="&#x2003;" horiz-adv-x="1790" />
<glyph unicode="&#x2004;" horiz-adv-x="596" />
<glyph unicode="&#x2005;" horiz-adv-x="447" />
<glyph unicode="&#x2006;" horiz-adv-x="298" />
<glyph unicode="&#x2007;" horiz-adv-x="298" />
<glyph unicode="&#x2008;" horiz-adv-x="223" />
<glyph unicode="&#x2009;" horiz-adv-x="358" />
<glyph unicode="&#x200a;" horiz-adv-x="99" />
<glyph unicode="&#x2010;" d="M127 495v210h822v-210h-822z" />
<glyph unicode="&#x2011;" d="M127 495v210h822v-210h-822z" />
<glyph unicode="&#x2012;" d="M127 495v210h822v-210h-822z" />
<glyph unicode="&#x2013;" horiz-adv-x="1277" d="M127 495v210h1024v-210h-1024z" />
<glyph unicode="&#x2014;" horiz-adv-x="2301" d="M127 495v210h2048v-210h-2048z" />
<glyph unicode="&#x2018;" d="M343 1108q0 354 341 390l20 -74q-45 -17 -83.5 -49t-38.5 -70q0 -21 9 -42t28 -26q43 -10 78 -48t35 -81q0 -79 -54.5 -137.5t-139.5 -58.5q-84 0 -139.5 57.5t-55.5 138.5z" />
<glyph unicode="&#x2019;" d="M343 1322q0 79 54.5 137.5t139.5 58.5q84 0 139.5 -57.5t55.5 -138.5q0 -354 -341 -390l-20 74q45 17 83.5 49t38.5 70q0 21 -9 42t-28 26q-43 10 -78 48t-35 81z" />
<glyph unicode="&#x201a;" d="M343 279q0 79 54.5 137.5t139.5 58.5q84 0 139.5 -57.5t55.5 -138.5q0 -354 -341 -390l-20 74q45 17 83.5 49t38.5 70q0 21 -9 42t-28 26q-43 10 -78 48t-35 81z" />
<glyph unicode="&#x201c;" d="M185 1104q0 354 341 390l20 -74q-45 -17 -83.5 -49t-38.5 -70q0 -21 9 -42t28 -26q43 -10 78 -48t35 -81q0 -79 -54.5 -137.5t-139.5 -58.5q-84 0 -139.5 57.5t-55.5 138.5zM613 1104q0 354 341 390l20 -74q-45 -17 -83.5 -49t-38.5 -70q0 -21 9 -42t28 -26 q43 -10 78 -48t35 -81q0 -79 -54.5 -137.5t-139.5 -58.5q-84 0 -139.5 57.5t-55.5 138.5z" />
<glyph unicode="&#x201d;" d="M126 1322q0 79 54.5 137.5t139.5 58.5q84 0 139.5 -57.5t55.5 -138.5q0 -354 -341 -390l-20 74q45 17 83.5 49t38.5 70q0 21 -9 42t-28 26q-43 10 -78 48t-35 81zM556 1322q0 79 54.5 137.5t139.5 58.5q84 0 139.5 -57.5t55.5 -138.5q0 -354 -341 -390l-20 74 q45 17 83.5 49t38.5 70q0 21 -9 42t-28 26q-43 10 -78 48t-35 81z" />
<glyph unicode="&#x201e;" d="M126 276q0 79 54.5 137.5t139.5 58.5q84 0 139.5 -57.5t55.5 -138.5q0 -354 -341 -390l-20 74q45 17 83.5 49t38.5 70q0 21 -9 42t-28 26q-43 10 -78 48t-35 81zM556 276q0 79 54.5 137.5t139.5 58.5q84 0 139.5 -57.5t55.5 -138.5q0 -354 -341 -390l-20 74 q45 17 83.5 49t38.5 70q0 21 -9 42t-28 26q-43 10 -78 48t-35 81z" />
<glyph unicode="&#x2022;" d="M247 664v2q0 124 84 205t204 81h2q132 0 211.5 -82.5t79.5 -203.5q0 -118 -84.5 -190.5t-206.5 -72.5h-3q-132 0 -209.5 72.5t-77.5 188.5z" />
<glyph unicode="&#x2026;" d="M87 113q0 40 27.5 70t67.5 30t67.5 -31t27.5 -69q0 -40 -27.5 -70.5t-67.5 -30.5t-67.5 30t-27.5 71zM443 113q0 40 27 70t67 30q41 0 68.5 -31t27.5 -69q0 -40 -28 -70.5t-68 -30.5q-39 0 -66.5 30t-27.5 71zM798 113q0 40 27.5 70t67.5 30q41 0 68.5 -31t27.5 -69 q0 -40 -28 -70.5t-68 -30.5q-39 0 -67 30t-28 71z" />
<glyph unicode="&#x202f;" horiz-adv-x="358" />
<glyph unicode="&#x2039;" d="M167 516v168l742 555v-262l-505 -377l505 -377v-262z" />
<glyph unicode="&#x203a;" d="M167 -39v262l505 377l-505 377v262l742 -555v-168z" />
<glyph unicode="&#x205f;" horiz-adv-x="447" />
<glyph unicode="&#x20ac;" d="M74 460v210h125v100h-90v210h97q12 95 42.5 173t81 140.5t128.5 97t176 34.5q119 0 212.5 -43.5t144.5 -126.5l-180 -110q-43 70 -177 70q-180 0 -217 -235h447v-210h-455v-100h305v-210h-298q16 -128 70.5 -201.5t147.5 -73.5q133 0 177 73l180 -108q-55 -89 -150 -132 t-207 -43q-85 0 -154.5 28t-116 74t-80.5 110.5t-52 131t-26 141.5h-131z" />
<glyph unicode="&#x2122;" d="M113 1233v150h377v17h152l96 -436l97 436h151l-1 -934h-150v242l-41 -189h-112l-42 192v-245h-150v767h-102v-764h-150v764h-125z" />
<glyph unicode="&#x25fc;" horiz-adv-x="1025" d="M0 0v1025h1025v-1025h-1025z" />
</font>
</defs>
</svg>
